<svg width="26" height="26" viewBox="0 0 26 26" fill="none" xmlns="http://www.w3.org/2000/svg">
<path d="M1.8716 1.96959C1.76276 1.53426 1.32162 1.26959 0.88629 1.37843C0.450959 1.48727 0.186288 1.92841 0.295132 2.36374L1.43463 6.9213L2.495 11.3456C2.94588 13.2269 3.30078 14.7077 3.72192 15.8581C4.15391 17.0381 4.68367 17.9542 5.53363 18.6567C5.60698 18.7173 5.68171 18.7763 5.75776 18.8335C6.639 19.4963 7.65334 19.798 8.90155 19.943C10.1184 20.0844 11.6411 20.0844 13.5756 20.0844H14.2186C15.8924 20.0844 17.21 20.0844 18.2714 19.9771C19.3587 19.8672 20.2532 19.639 21.0583 19.1349C21.4401 18.8959 21.7949 18.616 22.1164 18.3004C22.7512 17.6773 23.1695 16.9206 23.516 15.9792H18.4168C17.9681 15.9792 17.6043 15.6154 17.6043 15.1667C17.6043 14.7179 17.9681 14.3542 18.4168 14.3542H24.0175C24.1499 13.8618 24.2839 13.3216 24.4274 12.7292L15.1668 12.7292C14.7181 12.7292 14.3543 12.3654 14.3543 11.9167C14.3543 11.4679 14.7181 11.1042 15.1668 11.1042L24.8165 11.1042C24.9774 10.4181 25.1035 9.82959 25.1606 9.33025C25.2383 8.65014 25.2066 8.00256 24.8671 7.41129C24.7219 7.1584 24.5404 6.92821 24.3283 6.72806C23.8324 6.26011 23.2101 6.07833 22.5306 5.99541C21.8759 5.91552 21.0441 5.91554 20.0348 5.91557L2.8582 5.91557L1.8716 1.96959Z" fill="#FFDC7F"/>
<path d="M10.2063 23.8333C10.8361 23.8333 11.3466 23.3228 11.3466 22.693C11.3466 22.0632 10.8361 21.5526 10.2063 21.5526C9.57648 21.5526 9.06593 22.0632 9.06593 22.693C9.06593 23.3228 9.57648 23.8333 10.2063 23.8333Z" fill="#FFDC7F"/>
<path d="M17.0484 23.8333C17.6782 23.8333 18.1887 23.3228 18.1887 22.693C18.1887 22.0632 17.6782 21.5526 17.0484 21.5526C16.4186 21.5526 15.908 22.0632 15.908 22.693C15.908 23.3228 16.4186 23.8333 17.0484 23.8333Z" fill="#FFDC7F"/>
</svg>
