<?xml version="1.0" encoding="utf-8"?>
<!-- Generator: Adobe Illustrator 25.1.0, SVG Export Plug-In . SVG Version: 6.00 Build 0)  -->
<svg version="1.1" id="Layer_1" xmlns="http://www.w3.org/2000/svg" xmlns:xlink="http://www.w3.org/1999/xlink" x="0px" y="0px"
	 viewBox="0 0 16 16" style="enable-background:new 0 0 16 16;" xml:space="preserve">
<style type="text/css">
	.st0{fill-rule:evenodd;clip-rule:evenodd;fill:#A6ABC8;}
</style>
<path class="st0" d="M4.5,0.5h7c2.6,0,4,1.4,4,4v7c0,2.6-1.4,4-4,4h-7c-2.6,0-4-1.4-4-4v-7C0.5,1.9,1.9,0.5,4.5,0.5z M8,12.4
	c0.3,0,0.6-0.2,0.6-0.6V4.2c0-0.2-0.1-0.5-0.3-0.6c-0.2-0.1-0.5-0.1-0.7,0C7.5,3.7,7.4,4,7.4,4.2v7.6C7.5,12.2,7.7,12.4,8,12.4z
	 M11.5,12.4c0.3,0,0.6-0.2,0.6-0.6V9.4c0-0.2-0.1-0.5-0.3-0.6c-0.2-0.1-0.5-0.1-0.7,0c-0.2,0.1-0.3,0.4-0.3,0.6v2.5
	C10.9,12.2,11.2,12.4,11.5,12.4z M5.2,11.8c0,0.3-0.3,0.6-0.6,0.6c-0.3,0-0.6-0.2-0.6-0.6V6.7c0-0.2,0.1-0.5,0.3-0.6
	c0.2-0.1,0.5-0.1,0.7,0c0.2,0.1,0.3,0.4,0.3,0.6V11.8z"/>
</svg>
