<svg width="16" height="16" viewBox="0 0 16 16" fill="none" xmlns="http://www.w3.org/2000/svg">
<path fill-rule="evenodd" clip-rule="evenodd" d="M4.74775 0.500305H11.752C14.3028 0.500305 15.7428 1.94706 15.7503 4.49781V11.5028C15.7503 14.0528 14.3028 15.5003 11.752 15.5003H4.74775C2.197 15.5003 0.750252 14.0528 0.750252 11.5028V4.49781C0.750252 1.94706 2.197 0.500305 4.74775 0.500305ZM8.28705 12.3953C8.6103 12.3953 8.87955 12.1553 8.90955 11.8328V4.1903C8.93955 3.9578 8.8278 3.72455 8.6253 3.5978C8.41455 3.4703 8.15955 3.4703 7.9578 3.5978C7.75455 3.72455 7.6428 3.9578 7.66455 4.1903V11.8328C7.7028 12.1553 7.97205 12.3953 8.28705 12.3953ZM11.7378 12.3953C12.0528 12.3953 12.3221 12.1553 12.3603 11.8328V9.37281C12.382 9.13206 12.2703 8.90781 12.067 8.78031C11.8653 8.65281 11.6103 8.65281 11.4003 8.78031C11.1971 8.90781 11.0853 9.13206 11.1153 9.37281V11.8328C11.1453 12.1553 11.4146 12.3953 11.7378 12.3953ZM5.41453 11.8328C5.38453 12.1553 5.11528 12.3953 4.79203 12.3953C4.46952 12.3953 4.19952 12.1553 4.17027 11.8328V6.6503C4.14777 6.41705 4.25952 6.1853 4.46277 6.0578C4.66453 5.9303 4.92028 5.9303 5.12278 6.0578C5.32453 6.1853 5.43778 6.41705 5.41453 6.6503V11.8328Z" fill="#273240"/>
</svg>
