<?xml version="1.0" encoding="utf-8"?>
<!-- Generator: Adobe Illustrator 25.1.0, SVG Export Plug-In . SVG Version: 6.00 Build 0)  -->
<svg version="1.1" id="Layer_1" xmlns="http://www.w3.org/2000/svg" xmlns:xlink="http://www.w3.org/1999/xlink" x="0px" y="0px"
	 viewBox="0 0 14 16" style="enable-background:new 0 0 14 16;" xml:space="preserve">
<style type="text/css">
	.st0{fill-rule:evenodd;clip-rule:evenodd;fill:#FFFFFF;}
</style>
<path class="st0" d="M3.9,0.5h6.3c2.3,0,3.6,1.3,3.6,3.6v7.7c0,2.3-1.3,3.6-3.6,3.6H3.9c-2.3,0-3.6-1.3-3.6-3.6V4.1
	C0.2,1.8,1.6,0.5,3.9,0.5z M4.1,4L4.1,4l2.2,0c0.3,0,0.6,0.3,0.6,0.6c0,0.3-0.3,0.6-0.6,0.6H4.1c-0.3,0-0.6-0.3-0.6-0.6
	C3.5,4.3,3.7,4,4.1,4z M4.1,8.6h5.9c0.3,0,0.6-0.3,0.6-0.6s-0.3-0.6-0.6-0.6H4.1C3.7,7.4,3.5,7.6,3.5,8S3.7,8.6,4.1,8.6z M4.1,12
	h5.9c0.3,0,0.5-0.3,0.5-0.6c0-0.3-0.2-0.6-0.5-0.6H4.1c-0.2,0-0.4,0.1-0.6,0.3c-0.1,0.2-0.1,0.4,0,0.6C3.6,11.9,3.8,12,4.1,12z"/>
</svg>
