<?xml version="1.0" encoding="utf-8"?>
<!-- Generator: Adobe Illustrator 25.1.0, SVG Export Plug-In . SVG Version: 6.00 Build 0)  -->
<svg version="1.1" id="Layer_1" xmlns="http://www.w3.org/2000/svg" xmlns:xlink="http://www.w3.org/1999/xlink" x="0px" y="0px"
	 viewBox="0 0 16 14" style="enable-background:new 0 0 16 14;" xml:space="preserve">
<style type="text/css">
	.st0{fill:#227B94;}
</style>
<g>
	<path class="st0" d="M7,0.2c0.4,0,0.8,0.3,0.8,0.8c0,0.4-0.3,0.8-0.8,0.8H1C0.6,1.8,0.2,1.4,0.2,1c0-0.4,0.3-0.8,0.8-0.8H7z"/>
	<path class="st0" d="M15,6.2c0.4,0,0.8,0.3,0.8,0.8S15.4,7.8,15,7.8H1C0.6,7.8,0.2,7.4,0.2,7S0.6,6.2,1,6.2H15z"/>
	<path class="st0" d="M11,12.2c0.4,0,0.8,0.3,0.8,0.8s-0.3,0.8-0.8,0.8H1c-0.4,0-0.8-0.3-0.8-0.8s0.3-0.8,0.8-0.8H11z"/>
</g>
</svg>
