<?xml version="1.0" encoding="utf-8"?>
<!-- Generator: Adobe Illustrator 25.1.0, SVG Export Plug-In . SVG Version: 6.00 Build 0)  -->
<svg version="1.1" id="Layer_1" xmlns="http://www.w3.org/2000/svg" xmlns:xlink="http://www.w3.org/1999/xlink" x="0px" y="0px"
	 viewBox="0 0 16 14" style="enable-background:new 0 0 16 14;" xml:space="preserve">
<style type="text/css">
	.st0{fill:#227B94;}
</style>
<g>
	<path class="st0" d="M9,0.2C8.6,0.2,8.2,0.5,8.2,1c0,0.4,0.3,0.8,0.8,0.8h6c0.4,0,0.8-0.4,0.8-0.8S15.5,0.2,15,0.2
		C15,0.2,9,0.2,9,0.2z"/>
	<path class="st0" d="M1,6.2C0.6,6.2,0.2,6.5,0.2,7S0.6,7.8,1,7.8h14c0.4,0,0.8-0.4,0.8-0.8S15.4,6.2,15,6.2H1z"/>
	<path class="st0" d="M5,12.2c-0.4,0-0.8,0.3-0.8,0.8s0.3,0.8,0.8,0.8h10c0.4,0,0.8-0.3,0.8-0.8s-0.3-0.8-0.8-0.8H5z"/>
</g>
</svg>
