<svg id="Layer_1" data-name="Layer 1" xmlns="http://www.w3.org/2000/svg" viewBox="0 0 1000 300.6"><defs><style>.cls-1{fill:#227b94;}</style></defs><g id="layer_1-2" data-name="layer 1"><path class="cls-1" d="M340.7,262.5a5.29,5.29,0,0,1,2.6,4.6v.4h-6.1v-.1a2,2,0,0,0-.6-1.5,2.81,2.81,0,0,0-2-.6,3.74,3.74,0,0,0-2,.4c-.5.3-.7.6-.7.9a1.35,1.35,0,0,0,.9,1.2,15.09,15.09,0,0,0,3,.8c1.6.3,2.9.7,4,1a7.12,7.12,0,0,1,2.7,1.8,4.46,4.46,0,0,1,1.2,3.3,6.13,6.13,0,0,1-2.4,5.3,10.65,10.65,0,0,1-6.5,1.7c-3.1,0-5.6-.5-7.3-1.6s-2.6-2.9-2.6-5.6H331a2.22,2.22,0,0,0,.8,2,4.94,4.94,0,0,0,2.5.5,5.62,5.62,0,0,0,2-.3,1.08,1.08,0,0,0,.8-1.1,1.15,1.15,0,0,0-.9-1.1c-.6-.2-1.6-.5-2.9-.8-1.6-.4-3-.7-4.1-1.1a6.66,6.66,0,0,1-2.8-1.9,5.22,5.22,0,0,1-1.2-3.6,5.46,5.46,0,0,1,2.6-4.9,12.75,12.75,0,0,1,6.5-1.6,16.11,16.11,0,0,1,6.4,1.9"/><path class="cls-1" d="M353.9,272.9v1.7c0,2.2,1,3.3,2.9,3.3s2.9-1.1,2.9-3.3v-1.7c0-2.2-1-3.3-2.9-3.3s-2.9,1.1-2.9,3.3m9.3-5.2a9,9,0,0,1,0,12,9.14,9.14,0,0,1-6.4,2.1,9.8,9.8,0,0,1-6.4-2,7.83,7.83,0,0,1-2.3-6,7.68,7.68,0,0,1,2.3-6c1.5-1.4,3.7-2,6.4-2s4.8.5,6.4,1.9"/><path class="cls-1" d="M384.7,267.2a5.58,5.58,0,0,1,2.4,5h-5.7c0-1.8-1-2.6-2.9-2.6s-2.9,1.1-2.9,3.3v1.7q0,3.3,3,3.3t3-2.7H387a5.7,5.7,0,0,1-2.4,5,10.57,10.57,0,0,1-6.2,1.6,9.8,9.8,0,0,1-6.4-2,7.83,7.83,0,0,1-2.3-6,7.68,7.68,0,0,1,2.3-6c1.5-1.4,3.7-2,6.4-2a10.19,10.19,0,0,1,6.3,1.4"/><path class="cls-1" d="M392.4,266h5.8v15.5h-5.8Zm0-5.8h5.8v4h-5.8Z"/><path class="cls-1" d="M410.3,275.2c-.8.4-1.2.8-1.2,1.5,0,1,.7,1.5,2,1.5a3.38,3.38,0,0,0,2-.6,1.76,1.76,0,0,0,.9-1.5v-1.3a9.16,9.16,0,0,0-3.7.4m7.3-8.4a4.05,4.05,0,0,1,2.2,3.9v6a1.88,1.88,0,0,0,.2.8.91.91,0,0,0,.7.3h1.1v3.4c-.1,0-.2.1-.5.2a6.21,6.21,0,0,1-1,.3,7.57,7.57,0,0,1-1.5.1,7.39,7.39,0,0,1-2.8-.5,2.94,2.94,0,0,1-1.5-1.4,7.68,7.68,0,0,1-2.5,1.4,8,8,0,0,1-3.2.5c-3.6,0-5.5-1.4-5.5-4.3a4.4,4.4,0,0,1,1.2-3.4,6.72,6.72,0,0,1,3.5-1.6,32.53,32.53,0,0,1,6-.4v-.8a1.68,1.68,0,0,0-.6-1.4,2.77,2.77,0,0,0-1.6-.5,4.15,4.15,0,0,0-1.6.3,1.2,1.2,0,0,0-.7,1v.1h-5.7v-.4a4,4,0,0,1,2.1-3.5,11.14,11.14,0,0,1,6-1.3,12,12,0,0,1,5.7,1.2"/><path class="cls-1" d="M426.1,260.2h5.8v21.2h-5.8Z"/><path class="cls-1" d="M465,262.5a5.29,5.29,0,0,1,2.6,4.6v.4h-6.1v-.1a2,2,0,0,0-.6-1.5,2.81,2.81,0,0,0-2-.6,3.74,3.74,0,0,0-2,.4c-.5.3-.7.6-.7.9a1.35,1.35,0,0,0,.9,1.2,15.09,15.09,0,0,0,3,.8c1.6.3,2.9.7,4,1a7.12,7.12,0,0,1,2.7,1.8,4.46,4.46,0,0,1,1.2,3.3,6.13,6.13,0,0,1-2.4,5.3,10.65,10.65,0,0,1-6.5,1.7c-3.1,0-5.6-.5-7.3-1.6s-2.6-2.9-2.6-5.6h6.1a2.22,2.22,0,0,0,.8,2,4.94,4.94,0,0,0,2.5.5,5.62,5.62,0,0,0,2-.3,1.08,1.08,0,0,0,.8-1.1,1.15,1.15,0,0,0-.9-1.1c-.6-.2-1.6-.5-2.9-.8-1.6-.4-3-.7-4.1-1.1a6.66,6.66,0,0,1-2.8-1.9,5.22,5.22,0,0,1-1.2-3.6,5.46,5.46,0,0,1,2.6-4.9,12.75,12.75,0,0,1,6.5-1.6,15.15,15.15,0,0,1,6.4,1.9"/><path class="cls-1" d="M479.6,270.8a4.27,4.27,0,0,0-.6,2.4v1a4.27,4.27,0,0,0,.6,2.4,2.2,2.2,0,0,0,1.9.9c1.7,0,2.5-1,2.5-3v-1.6c0-2-.8-3-2.5-3a2.2,2.2,0,0,0-1.9.9m8.6-3.1a9.64,9.64,0,0,1,1.7,6.1c0,2.7-.6,4.7-1.7,6a5.67,5.67,0,0,1-4.8,2,5.51,5.51,0,0,1-4.3-1.8v7.2h-5.8V266H478l.5,2.2a6.37,6.37,0,0,1,9.7-.5"/><path class="cls-1" d="M501,275.2c-.8.4-1.2.8-1.2,1.5,0,1,.7,1.5,2,1.5a3.38,3.38,0,0,0,2-.6,1.76,1.76,0,0,0,.9-1.5v-1.3a9.16,9.16,0,0,0-3.7.4m7.3-8.4a4.05,4.05,0,0,1,2.2,3.9v6a1.88,1.88,0,0,0,.2.8.91.91,0,0,0,.7.3h1.1v3.4c-.1,0-.2.1-.5.2a6.21,6.21,0,0,1-1,.3,7.57,7.57,0,0,1-1.5.1,7.39,7.39,0,0,1-2.8-.5,2.94,2.94,0,0,1-1.5-1.4,7.68,7.68,0,0,1-2.5,1.4,8,8,0,0,1-3.2.5c-3.6,0-5.5-1.4-5.5-4.3a4.4,4.4,0,0,1,1.2-3.4,6.72,6.72,0,0,1,3.5-1.6,32.53,32.53,0,0,1,6-.4v-.8a1.68,1.68,0,0,0-.6-1.4,2.77,2.77,0,0,0-1.6-.5,4.15,4.15,0,0,0-1.6.3,1.2,1.2,0,0,0-.7,1v.1h-5.7v-.4a4,4,0,0,1,2.1-3.5,11.14,11.14,0,0,1,6-1.3,12,12,0,0,1,5.7,1.2"/><path class="cls-1" d="M530.8,267.2a5.58,5.58,0,0,1,2.4,5h-5.7c0-1.8-1-2.6-2.9-2.6s-2.9,1.1-2.9,3.3v1.7q0,3.3,3,3.3t3-2.7h5.4a5.7,5.7,0,0,1-2.4,5,10.57,10.57,0,0,1-6.2,1.6,9.8,9.8,0,0,1-6.4-2,7.83,7.83,0,0,1-2.3-6,7.68,7.68,0,0,1,2.3-6c1.5-1.4,3.7-2,6.4-2a10,10,0,0,1,6.3,1.4"/><path class="cls-1" d="M543.5,271.9h5.7a2.42,2.42,0,0,0-2.6-2.6c-1.9,0-2.9.9-3.1,2.6m9.3-4.3c1.5,1.3,2.2,3.4,2.2,6.1v1H543.4a4.14,4.14,0,0,0,.7,2.5,3,3,0,0,0,2.4.9,3.4,3.4,0,0,0,2.2-.6,2,2,0,0,0,.7-1.6h5.7a5.23,5.23,0,0,1-2.1,4.4c-1.4,1.1-3.5,1.6-6.2,1.6a10.3,10.3,0,0,1-6.7-2c-1.6-1.3-2.4-3.4-2.4-6.1s.8-4.7,2.3-6,3.7-2,6.4-2a8.47,8.47,0,0,1,6.4,1.8"/><path class="cls-1" d="M587.7,261.7a8.51,8.51,0,0,1,3.4,2,4,4,0,0,1,1.2,2.8v.7H587a1.8,1.8,0,0,0-1.1-1.5,6.29,6.29,0,0,0-3.1-.6,5,5,0,0,0-2.9.7,2.09,2.09,0,0,0-1,1.7,1.68,1.68,0,0,0,.6,1.4,2.46,2.46,0,0,0,1.5.5h3V273h-3.7a2.46,2.46,0,0,0-1.5.5,2.11,2.11,0,0,0-.6,1.6,2.17,2.17,0,0,0,1,1.9,5.42,5.42,0,0,0,3.2.7c2.9,0,4.4-.9,4.4-2.6v-5.7h9.3V273h-4v2a6.19,6.19,0,0,1-2.3,5.1c-1.5,1.2-4,1.8-7.3,1.8s-5.9-.5-7.6-1.6a5.12,5.12,0,0,1-1.6-7.3,4.92,4.92,0,0,1,2.6-1.8v-.1a5.37,5.37,0,0,1-2.1-1.6,3.93,3.93,0,0,1-.8-2.5,4.56,4.56,0,0,1,1.1-2.9,6.9,6.9,0,0,1,3.2-2.1,15.36,15.36,0,0,1,5.2-.8,10.9,10.9,0,0,1,5.2.5"/><path class="cls-1" d="M624.6,266.4a1.66,1.66,0,0,0-1.3-.5h-4.2v3.7h4.2a2.11,2.11,0,0,0,1.3-.5,1.66,1.66,0,0,0,.5-1.3,1.47,1.47,0,0,0-.5-1.4m6.2,4.4a5.94,5.94,0,0,1-2.9,2.2l4.5,8.4h-7.3l-3.6-7.4h-2.4v7.4h-6.5V261.3H625a8.41,8.41,0,0,1,3.7.8,5.66,5.66,0,0,1,2.3,2.3,6.5,6.5,0,0,1,.8,3.1,7.49,7.49,0,0,1-1,3.3"/><path class="cls-1" d="M641.6,272.9v1.7c0,2.2,1,3.3,2.9,3.3s2.9-1.1,2.9-3.3v-1.7c0-2.2-1-3.3-2.9-3.3s-2.9,1.1-2.9,3.3m9.2-5.2a9,9,0,0,1,0,12,9.14,9.14,0,0,1-6.4,2.1,9.8,9.8,0,0,1-6.4-2,7.83,7.83,0,0,1-2.3-6,7.68,7.68,0,0,1,2.3-6c1.5-1.4,3.7-2,6.4-2s4.9.5,6.4,1.9"/><path class="cls-1" d="M664.3,275.2c-.8.4-1.2.8-1.2,1.5,0,1,.7,1.5,2,1.5a3.38,3.38,0,0,0,2-.6,1.76,1.76,0,0,0,.9-1.5v-1.3a9.16,9.16,0,0,0-3.7.4m7.3-8.4a4.05,4.05,0,0,1,2.2,3.9v6a1.88,1.88,0,0,0,.2.8.91.91,0,0,0,.7.3h1.1v3.4c-.1,0-.2.1-.5.2a6.21,6.21,0,0,1-1,.3,7.57,7.57,0,0,1-1.5.1,7.39,7.39,0,0,1-2.8-.5,2.94,2.94,0,0,1-1.5-1.4,7.68,7.68,0,0,1-2.5,1.4,8,8,0,0,1-3.2.5c-3.6,0-5.5-1.4-5.5-4.3a4.4,4.4,0,0,1,1.2-3.4,6.72,6.72,0,0,1,3.5-1.6,32.53,32.53,0,0,1,6-.4v-.8a1.68,1.68,0,0,0-.6-1.4,2.77,2.77,0,0,0-1.6-.5,4.15,4.15,0,0,0-1.6.3,1.2,1.2,0,0,0-.7,1v.1h-5.7v-.4a4,4,0,0,1,2.1-3.5,11.14,11.14,0,0,1,6-1.3,12,12,0,0,1,5.7,1.2"/><path class="cls-1" d="M692.5,266.8a4.18,4.18,0,0,1,2.2,3.8h-5.4a1.21,1.21,0,0,0-.8-1.2,2.77,2.77,0,0,0-1.3-.3c-1.4,0-2.1.3-2.1,1,0,.4.2.6.7.8a15.87,15.87,0,0,0,2.4.5,20,20,0,0,1,3.4.7,5.85,5.85,0,0,1,2.4,1.4,3.71,3.71,0,0,1,1,2.8,4.32,4.32,0,0,1-2.2,4.2,12.14,12.14,0,0,1-5.8,1.3,12.26,12.26,0,0,1-3.9-.6,7.53,7.53,0,0,1-3-1.8,4,4,0,0,1-1.1-3h5.4v.1a1.49,1.49,0,0,0,.8,1.4,3.29,3.29,0,0,0,1.7.4c1.6,0,2.4-.4,2.4-1.1,0-.4-.3-.7-.8-.9a13,13,0,0,0-2.5-.6,19,19,0,0,1-3.4-.8,5,5,0,0,1-2.3-1.4,3.62,3.62,0,0,1-1-2.7,4.11,4.11,0,0,1,2.2-4,11.35,11.35,0,0,1,5.6-1.2,10.8,10.8,0,0,1,5.4,1.2"/><path class="cls-1" d="M710.3,266v4H707v5.9a2.08,2.08,0,0,0,.4,1.5,1.58,1.58,0,0,0,1.3.5h1.6v3.4a8,8,0,0,1-1.8.4,13.43,13.43,0,0,1-1.9.1,7.65,7.65,0,0,1-4-.9,3.62,3.62,0,0,1-1.4-3.2V270H699v-4h2.4l1.3-4.7H707V266Z"/><path class="cls-1" d="M720.3,271.9H726a2.42,2.42,0,0,0-2.6-2.6,2.83,2.83,0,0,0-3.1,2.6m9.4-4.3c1.5,1.3,2.2,3.4,2.2,6.1v1H720.3a4.14,4.14,0,0,0,.7,2.5,3,3,0,0,0,2.4.9,3.4,3.4,0,0,0,2.2-.6,2,2,0,0,0,.7-1.6H732a5.23,5.23,0,0,1-2.1,4.4c-1.4,1.1-3.5,1.6-6.2,1.6a10.3,10.3,0,0,1-6.7-2c-1.6-1.3-2.4-3.4-2.4-6.1s.8-4.7,2.3-6,3.7-2,6.4-2a8.61,8.61,0,0,1,6.4,1.8"/><path class="cls-1" d="M747.5,265.7a1.19,1.19,0,0,1,.5.2v4.9h-1.9a3.27,3.27,0,0,0-2.6.9,4.45,4.45,0,0,0-.8,2.8v6.9h-5.8V266h4.8l.4,2.3a3.77,3.77,0,0,1,1.7-2,4.62,4.62,0,0,1,2.6-.7,3.75,3.75,0,0,1,1.1.1"/><path class="cls-1" d="M761.5,285.9a6.94,6.94,0,0,1-4.9,1.7,11.59,11.59,0,0,1-3.4-.5v-3.5h2.3a2.37,2.37,0,0,0,2.6-2.1L752,266h6.3l3,10.3h.2l2.7-10.3h5.7l-5.5,15a11.61,11.61,0,0,1-2.9,4.9"/><path class="cls-1" d="M181,146.2a4.48,4.48,0,0,1-4.5-4.5V106.3a66.1,66.1,0,0,0-132.2,0v35.4a4.5,4.5,0,0,1-9,0V106.3a75.2,75.2,0,0,1,150.4,0v35.4a4.79,4.79,0,0,1-4.7,4.5"/><path class="cls-1" d="M185.5,160h0a4.48,4.48,0,0,1-4.5,4.5H39.9a4.55,4.55,0,1,1-.2-9.1H181a4.57,4.57,0,0,1,4.5,4.6"/><path class="cls-1" d="M176.4,185.8a65.94,65.94,0,0,1-65,66.1c.1-.7.3-1.5.5-2.3,4.8-20.1,19.8-59.2,64.5-66.3Zm4.1-12c-40.2,4-60.2,29.8-70.2,52.3a127.16,127.16,0,0,0-4.8,12.6c-.1.1-.1.1,0,.1-.9,2.6-1.5,5-2.1,7.3-.4,2-.9,3.8-1.2,5.4s-.5,2.9-.7,4.1l-.1.3-.7,4.4v.2l3.2.2,1.8.1h.3c1.5.1,2.9.1,4.4.1a75.11,75.11,0,0,0,75.1-75.2V173.1Z"/><path class="cls-1" d="M108.1,247.2c1.8-5,3.7-9.8,5.3-13.7q-1.35-3.6-3-7.5c-10-22.5-30.1-48.3-70.2-52.3l-5-.5v12.6a75.14,75.14,0,0,0,22,53.2,73.69,73.69,0,0,0,43.5,21.3,16.48,16.48,0,0,0,3.2.4.6.6,0,0,0,.1-.4,25,25,0,0,1,.7-2.6c.6-2,1.2-3.9,1.9-5.9a2.77,2.77,0,0,1-.9-.1c-1.2-.1-2.3-.1-3.5-.3q-3.9-.6-7.8-1.5a67.3,67.3,0,0,1-30.9-17.4,65.64,65.64,0,0,1-19.3-46.8v-2.4c37.5,5.9,54.2,34.4,61.4,55.3-.1.1-.1.1,0,.1.9,3.1,1.8,6,2.5,8.5"/><path class="cls-1" d="M132.5,164.5a5,5,0,0,1-2.6-.8,4.51,4.51,0,0,1-1.2-6.3c13.6-19.8,8.7-30.1,2.5-43.1-5.2-10.8-11-23-6.1-41.2a4.57,4.57,0,0,1,5.6-3.2,4.5,4.5,0,0,1,3.2,5.6c-4,15,.6,24.7,5.5,35,6.6,13.8,13.4,28-3.2,52.1a4.42,4.42,0,0,1-3.7,1.9"/><path class="cls-1" d="M89.9,164.5a5,5,0,0,1-2.6-.8,4.51,4.51,0,0,1-1.2-6.3c13.6-19.8,8.7-30.1,2.5-43.1-5.2-10.8-11-23-6.1-41.2a4.57,4.57,0,0,1,5.6-3.2,4.5,4.5,0,0,1,3.2,5.6c-4,15,.6,24.7,5.5,35,6.6,13.8,13.4,28-3.2,52.1a4.42,4.42,0,0,1-3.7,1.9"/><path class="cls-1" d="M111.2,164.5a4.65,4.65,0,0,1-3.1-1.2,4.56,4.56,0,0,1-.3-6.4c12.9-14.1,8-27.2,1.1-45.2-7.6-20-17-44.8-1.9-77.9a4.52,4.52,0,1,1,8.2,3.8c-13.5,29.7-5.2,51.6,2.1,70.9,7.1,18.7,13.8,36.4-2.9,54.6a4,4,0,0,1-3.2,1.4"/><path class="cls-1" d="M106,260.9a4.49,4.49,0,0,1-.8-8.9c12.8-2.6,17.8-11.4,23.7-21.7s12.4-21.7,27.6-25.5a4.54,4.54,0,0,1,2.2,8.8c-11.5,2.8-16.3,11.3-21.9,21.1-6.1,10.7-13,22.8-29.8,26.2h-1"/><path class="cls-1" d="M107.5,249c-.3,1-.7,1.9-1,2.9-.7,2-1.3,3.9-1.8,5.9a.35.35,0,0,1-.2-.1,34.82,34.82,0,0,1-10-7.6C90.1,245.4,87,240,84,234.7c-5.6-9.8-10.4-18.3-21.9-21.1a4.54,4.54,0,0,1,2.2-8.8c15.3,3.7,21.8,15.3,27.6,25.4,4.3,7.5,8.4,14.7,15.6,18.8"/><path class="cls-1" d="M194.6,185.9a84.25,84.25,0,0,1-168.5,0V106.3A84.24,84.24,0,0,1,194.4,101c.1,1.8.1,3.5.1,5.4v79.5Zm8.8-85.5A93.29,93.29,0,0,0,17,106.2v79.6a93.25,93.25,0,0,0,186.5,0V106.2a56.13,56.13,0,0,0-.1-5.8"/><path class="cls-1" d="M256.2,227h-1.4a4.78,4.78,0,0,1-3.7-1.3,6.42,6.42,0,0,1-1.8-2.9,21.48,21.48,0,0,1-.9-4V151.3c-15.6-4-22.6-10.5-25.6-14.4a173.38,173.38,0,0,0,25.6,5.2V121.2a19.66,19.66,0,0,1,.2-2.6H213.3a13.57,13.57,0,0,1,.1,1.8v99.8a8.86,8.86,0,0,1-.8,4,5.64,5.64,0,0,1-1.9,2.1,11.14,11.14,0,0,1-3,.8h-1.2c-1.1,0-1.5.4-1.1,1.2l.4.9a1.72,1.72,0,0,0,1.6,1H255a1.37,1.37,0,0,0,1.3-.8l.7-1.2c.5-.8.2-1.2-.8-1.2"/><path class="cls-1" d="M403.3,227h-1.4a4.78,4.78,0,0,1-3.7-1.3,6.42,6.42,0,0,1-1.8-2.9,12.35,12.35,0,0,1-.9-4v-51a27.91,27.91,0,0,0-27.9-27.9H346.3V114q0-5.25,2.1-8.1a14.83,14.83,0,0,1,3.5-3.8.89.89,0,0,0,.2-1.5c-.1-.4-.4-.5-1-.5a3.55,3.55,0,0,0-.7.1,83.48,83.48,0,0,1-8.9,3.7c-3.6,1.4-7.3,2.6-11.1,3.7s-7.4,2.2-11,3.2a62,62,0,0,1-8.8,1.9c-1,.3-1.2.7-1,1.4q0,1.65,1.2,1.2c.7,0,1.5.1,2.4.1a7,7,0,0,1,4.4,2.2,4.48,4.48,0,0,1,.9,3V220a7.65,7.65,0,0,1-.9,4,5.64,5.64,0,0,1-1.9,2.1,10.48,10.48,0,0,1-2.9.8h-1.2c-1,0-1.4.4-1,1.2l.4.9a1.58,1.58,0,0,0,1.5,1h40.7a1.51,1.51,0,0,0,1.4-.8l.7-1.2q.6-1.2-.9-1.2h-1.5a4.78,4.78,0,0,1-3.7-1.3,7.42,7.42,0,0,1-1.8-2.9,15.75,15.75,0,0,1-.8-4V142.5c1.1-.2,2.5-.4,4.2-.7a41.16,41.16,0,0,1,5.1-.3,18.29,18.29,0,0,1,8.2,1.8c2.6,1.2,3.8,3.5,3.8,7v69.9l-.4,8.5a1.33,1.33,0,0,0,1.5,1.5h33.4a1.37,1.37,0,0,0,1.3-.8l.7-1.2c.2-.8-.1-1.2-1.1-1.2"/><path class="cls-1" d="M486.6,141.7l-.2-.4c-.1-.4-.4-.5-1-.5a4.33,4.33,0,0,0-.5.1c-2.1,1.5-4.1,2.7-6.2,4s-4.3,2.4-6.8,3.6a76.29,76.29,0,0,1-8.3,3.2c-3.1,1-6.7,1.9-10.9,2.9v-2.3a20.33,20.33,0,0,1,.6-5.4,34.47,34.47,0,0,1,1-3.9,2.81,2.81,0,0,0-.3-1.5l-.2-.2c-.1-.4-.5-.5-1.2-.5H452c-3,.7-6.2,1.5-9.5,2.5s-6.5,1.8-9.7,2.6-6.1,1.5-8.8,2.2a45.7,45.7,0,0,1-7.1,1.2c-.9.3-1.2.7-1,1.5,0,1,.4,1.5,1.2,1.2a23.2,23.2,0,0,1,2.4.2,6.11,6.11,0,0,1,2.4.7,7.81,7.81,0,0,1,2.1,1.6,5,5,0,0,1,.8,2.9v62.7a8.86,8.86,0,0,1-.8,4,5.09,5.09,0,0,1-2,2.1,10.48,10.48,0,0,1-2.9.8h-1.2c-1,0-1.4.4-1,1.2l.4.9a1.58,1.58,0,0,0,1.5,1h40.7a1.51,1.51,0,0,0,1.4-.8l.7-1.2q.6-1.2-.9-1.2h-1.4a4.78,4.78,0,0,1-3.7-1.3,6.42,6.42,0,0,1-1.8-2.9,12.35,12.35,0,0,1-.9-4V156.9l3.5-.2c3.2.1,5.4,1,6.8,2.5a48.78,48.78,0,0,1,3.8,4.9,18.69,18.69,0,0,0,4.9,4.8c2.1,1.5,5.2,2.1,9.5,2.1h2.3c1.3-.2,1.8-.9,1.6-1.9a27.36,27.36,0,0,1-.4-6.7c.1-2.6.3-5.3.6-7.9s.6-5,1-7.2.6-3.6.7-4.4a.85.85,0,0,0,0-.7c-.4,0-.5-.2-.6-.5"/><path class="cls-1" d="M525.6,189.6a137.2,137.2,0,0,1-5.1-15.3,52.58,52.58,0,0,1-2.1-13.7c0-5.1,1.3-9,4-11.6a13.31,13.31,0,0,1,9.3-4,13.73,13.73,0,0,1,10.5,4.9,17.65,17.65,0,0,1,3.5,6.2,27.26,27.26,0,0,1,1.2,9c0,6.6-1.5,11.8-4.6,15.7s-7.6,7.2-13.6,10.1a2.79,2.79,0,0,1-1,.1,1.72,1.72,0,0,1-2.1-1.4m56.3,4.4a11.39,11.39,0,0,0-14.6-.3,7.56,7.56,0,0,0-2.9,6,7,7,0,0,0,2.4,5.6,36,36,0,0,1,5.5,5.9,9.14,9.14,0,0,1,2.1,5.1,7.65,7.65,0,0,1-1.1,3.9,9.18,9.18,0,0,1-2.9,3,15.66,15.66,0,0,1-4.3,2.1,14.36,14.36,0,0,1-4.9.8,22,22,0,0,1-10-2.4,34.83,34.83,0,0,1-8.9-6.5,54.3,54.3,0,0,1-7.6-9.8,116.19,116.19,0,0,1-6.5-12.1,137.13,137.13,0,0,0,22.4-7.3,68.51,68.51,0,0,0,15.2-8.7,33.08,33.08,0,0,0,8.6-9.2,15.84,15.84,0,0,0,2.5-8.6,18.27,18.27,0,0,0-2.9-10.1,20.6,20.6,0,0,0-7.5-6.5,35.63,35.63,0,0,0-11-3.7,95.11,95.11,0,0,0-13.4-1.3,50.17,50.17,0,0,0-18.2,3.2,44,44,0,0,0-14.9,9,41.73,41.73,0,0,0-10.1,14.2,46.42,46.42,0,0,0-3.7,18.6,51.74,51.74,0,0,0,3.5,19,43.92,43.92,0,0,0,10.1,15.3,48.3,48.3,0,0,0,16.8,10.1,68.25,68.25,0,0,0,23.1,3.7,50.42,50.42,0,0,0,14.3-2,31.2,31.2,0,0,0,11.5-5.8,27.82,27.82,0,0,0,7.6-9.7,29.72,29.72,0,0,0,2.9-13.4c0-3.6-1.1-6.3-3.1-8.1"/><path class="cls-1" d="M624.1,189.6a137.2,137.2,0,0,1-5.1-15.3,52.58,52.58,0,0,1-2.1-13.7c0-5.1,1.3-9,4.1-11.6a13,13,0,0,1,9.1-4,15,15,0,0,1,5.7,1.2,14.45,14.45,0,0,1,4.9,3.7,17.65,17.65,0,0,1,3.5,6.2,24.67,24.67,0,0,1,1.4,9c0,6.6-1.6,11.8-4.7,15.7s-7.6,7.2-13.5,10.1a2.51,2.51,0,0,1-1,.1,1.87,1.87,0,0,1-2.3-1.4m56.4,4.4a11.39,11.39,0,0,0-14.6-.3,7.56,7.56,0,0,0-2.9,6,7,7,0,0,0,2.4,5.6,36,36,0,0,1,5.5,5.9,8.94,8.94,0,0,1,2,5.1,8.68,8.68,0,0,1-1,3.9,10.32,10.32,0,0,1-2.9,3,15.66,15.66,0,0,1-4.3,2.1,14.36,14.36,0,0,1-4.9.8,21.28,21.28,0,0,1-9.9-2.4,32.11,32.11,0,0,1-9-6.5,54.3,54.3,0,0,1-7.6-9.8,116.19,116.19,0,0,1-6.5-12.1,137.13,137.13,0,0,0,22.4-7.3,68.51,68.51,0,0,0,15.2-8.7,33.08,33.08,0,0,0,8.6-9.2,15.84,15.84,0,0,0,2.5-8.6,17.52,17.52,0,0,0-3-10.1,19.1,19.1,0,0,0-7.5-6.5,35,35,0,0,0-10.9-3.7,93.67,93.67,0,0,0-13.4-1.3,49.8,49.8,0,0,0-18.2,3.2,44,44,0,0,0-14.9,9,41.73,41.73,0,0,0-10.1,14.2,46.42,46.42,0,0,0-3.7,18.6,51.74,51.74,0,0,0,3.5,19,43.92,43.92,0,0,0,10.1,15.3,48.3,48.3,0,0,0,16.8,10.1,68.25,68.25,0,0,0,23.1,3.7,50.42,50.42,0,0,0,14.3-2,32,32,0,0,0,11.5-5.8,27.82,27.82,0,0,0,7.6-9.7,29.72,29.72,0,0,0,2.9-13.4c-.1-3.6-1.2-6.3-3.1-8.1"/><path class="cls-1" d="M764,222.6a7.14,7.14,0,0,1-3.3.9c-3.5,0-7.9-2.4-13.2-7.1s-11-12.3-17.3-22.8c-7.4-12.6-11.8-22.6-13.1-29.8s-.2-12,3.2-14a7.59,7.59,0,0,1,3.5-.9c3.5,0,7.9,2.4,13.2,7.1s11.1,12.3,17.3,22.9c7.5,12.5,11.8,22.4,13.1,29.8,1.1,7.3,0,11.9-3.4,13.9m20.6-55.9a42.5,42.5,0,0,0-25-23.7,52.39,52.39,0,0,0-18.2-3.2,49.42,49.42,0,0,0-18.2,3.2,42.3,42.3,0,0,0-14.8,9.1,43.37,43.37,0,0,0-10.1,14.6,49.85,49.85,0,0,0-3.7,19.5,47.78,47.78,0,0,0,3.7,19.5,43.37,43.37,0,0,0,10.1,14.6,44.44,44.44,0,0,0,14.8,9.2,53.36,53.36,0,0,0,36.4,0,41.52,41.52,0,0,0,14.9-9.2,43.37,43.37,0,0,0,10.1-14.6,49.85,49.85,0,0,0,3.7-19.5,48.11,48.11,0,0,0-3.7-19.5"/><path class="cls-1" d="M886.7,227h-1.5a4.78,4.78,0,0,1-3.7-1.3,7.42,7.42,0,0,1-1.8-2.9,15.75,15.75,0,0,1-.8-4V182.7a28,28,0,0,0-28-27.9H830v-2.3a25.52,25.52,0,0,1,.6-5.4,34.47,34.47,0,0,1,1-3.9,2.81,2.81,0,0,0-.3-1.5l-.2-.2c-.1-.4-.5-.5-1.2-.5h-.5c-3,.7-6.2,1.5-9.5,2.5s-6.5,1.8-9.7,2.6-6.1,1.5-8.8,2.2a45.7,45.7,0,0,1-7.1,1.2c-.9.3-1.2.7-1,1.5,0,1,.4,1.5,1.2,1.2a23.2,23.2,0,0,1,2.4.2,6.11,6.11,0,0,1,2.4.7,7.81,7.81,0,0,1,2.1,1.6,5,5,0,0,1,.8,2.9v62.7a8.86,8.86,0,0,1-.8,4,5.09,5.09,0,0,1-2,2.1,10.48,10.48,0,0,1-2.9.8h-1.2c-1,0-1.4.4-1,1.2l.4.9a1.58,1.58,0,0,0,1.5,1h40.7a1.51,1.51,0,0,0,1.4-.8l.7-1.2q.6-1.2-.9-1.2h-1.4a4.78,4.78,0,0,1-3.7-1.3,6.42,6.42,0,0,1-1.8-2.9,12.35,12.35,0,0,1-.9-4V157.6c1.2-.2,2.5-.4,4.2-.7a41.16,41.16,0,0,1,5.1-.3,19.24,19.24,0,0,1,8.1,1.7c2.4,1.2,3.6,3.5,3.6,7.1v55l-.4,8.5c0,1,.5,1.5,1.6,1.5h33.4a1.51,1.51,0,0,0,1.4-.8l.7-1.2c0-1-.3-1.4-1.3-1.4"/><path class="cls-1" d="M923.5,189.6a137.2,137.2,0,0,1-5.1-15.3,52.58,52.58,0,0,1-2.1-13.7c0-5.1,1.3-9,4.1-11.6a13,13,0,0,1,9.1-4,15,15,0,0,1,5.7,1.2,14.45,14.45,0,0,1,4.9,3.7,17.65,17.65,0,0,1,3.5,6.2,27.26,27.26,0,0,1,1.2,9c0,6.6-1.5,11.8-4.6,15.7s-7.6,7.2-13.6,10.1a2.51,2.51,0,0,1-1,.1c-1,.2-1.7-.3-2.1-1.4m56.4,4.4a10.69,10.69,0,0,0-7.4-2.8,10.28,10.28,0,0,0-7.1,2.5,7.38,7.38,0,0,0-3,6,7,7,0,0,0,2.4,5.6,36,36,0,0,1,5.5,5.9,8.29,8.29,0,0,1,2,5.1,7.56,7.56,0,0,1-1,3.9,10.32,10.32,0,0,1-2.9,3,15.66,15.66,0,0,1-4.3,2.1,14,14,0,0,1-4.9.8,21.28,21.28,0,0,1-9.9-2.4,33.6,33.6,0,0,1-9-6.5,54.3,54.3,0,0,1-7.6-9.8,116.19,116.19,0,0,1-6.5-12.1,137.13,137.13,0,0,0,22.4-7.3,68.51,68.51,0,0,0,15.2-8.7,33.08,33.08,0,0,0,8.6-9.2,15.84,15.84,0,0,0,2.5-8.6,18.27,18.27,0,0,0-2.9-10.1,20.6,20.6,0,0,0-7.5-6.5,35.63,35.63,0,0,0-11-3.7,93.67,93.67,0,0,0-13.4-1.3,48.89,48.89,0,0,0-18.1,3.2,45.48,45.48,0,0,0-15,9,41.73,41.73,0,0,0-10.1,14.2,46.42,46.42,0,0,0-3.7,18.6,51.74,51.74,0,0,0,3.5,19,43.92,43.92,0,0,0,10.1,15.3,48.3,48.3,0,0,0,16.8,10.1,68.25,68.25,0,0,0,23.1,3.7,50.42,50.42,0,0,0,14.3-2,31.2,31.2,0,0,0,11.5-5.8,27.82,27.82,0,0,0,7.6-9.7,29.72,29.72,0,0,0,2.9-13.4c0-3.6-1.1-6.3-3.1-8.1"/><path class="cls-1" d="M294.7,101.7c-2.1,33.7-19.7,41.7-40.4,40.9-2-.1-4-.2-6-.5a173.38,173.38,0,0,1-25.6-5.2c-3.2-.9-6.4-1.8-9.4-2.6-3.5-1-6.7-1.8-9.8-2.6a75.19,75.19,0,0,0-9-1.8c-3.6-.4-6.7-.5-9,.1-4.8,1.4-6.8,5.7-4.1,15.1a22.53,22.53,0,0,1-4.9-2.5v-.1c-9.6-7-9.6-22.2-.1-32.3a28.93,28.93,0,0,1,9-6.5,33.88,33.88,0,0,1,9-2.7,36.89,36.89,0,0,1,4.9-.5,26.7,26.7,0,0,1,4,0c36,.6,77.7,28.5,91.4,1.2"/></g></svg>