<svg width="26" height="26" viewBox="0 0 26 26" fill="none" xmlns="http://www.w3.org/2000/svg">
<path d="M22.4792 12.9983L17.2814 18.1961C17.2459 18.2316 17.2087 18.2692 17.1697 18.3086C16.7673 18.7151 16.1783 19.3103 15.4086 19.6802C14.6388 20.0502 13.8062 20.1383 13.2373 20.1986C13.1822 20.2044 13.1296 20.21 13.0798 20.2155L12.9245 20.2328C11.8182 20.356 10.7173 20.4786 9.80616 20.4492C8.77978 20.416 7.46957 20.1836 6.4025 19.1166C5.33543 18.0495 5.10302 16.7393 5.06987 15.7129C5.04045 14.8018 5.16306 13.7008 5.28627 12.5945L5.30355 12.4393C5.30908 12.3895 5.31465 12.3369 5.32048 12.2818C5.38069 11.7129 5.46884 10.8802 5.83881 10.1105C6.20877 9.3407 6.80391 8.75172 7.21049 8.34934C7.24984 8.3104 7.28749 8.27314 7.32293 8.23769L13.122 2.4386C12.7536 2.43749 12.3685 2.43749 11.9657 2.43749H11.8676C9.87806 2.43748 8.31849 2.43747 7.08117 2.57153C5.81851 2.70833 4.79543 2.99251 3.92191 3.62716C3.39309 4.01137 2.92803 4.47642 2.54382 5.00525C1.90917 5.87876 1.625 6.90184 1.4882 8.16451C1.35414 9.40182 1.35415 10.9614 1.35416 12.951V13.049C1.35415 15.0386 1.35414 16.5982 1.4882 17.8355C1.625 19.0981 1.90917 20.1212 2.54382 20.9947C2.92803 21.5236 3.39309 21.9886 3.92191 22.3728C4.79543 23.0075 5.81851 23.2917 7.08117 23.4285C8.31846 23.5625 9.878 23.5625 11.8675 23.5625H11.9657C13.9552 23.5625 15.5148 23.5625 16.7521 23.4285C18.0148 23.2917 19.0379 23.0075 19.9114 22.3728C20.4402 21.9886 20.9053 21.5236 21.2895 20.9947C21.9241 20.1212 22.2083 19.0981 22.3451 17.8355C22.4792 16.5982 22.4792 15.0386 22.4792 13.0491V12.9983Z" fill="#227B94"/>
<path d="M13.9182 4.32359L8.58512 9.65654C8.12916 10.1117 7.76864 10.4717 7.54753 10.9317C7.32642 11.3918 7.27058 11.8981 7.19996 12.5385L7.18079 12.7116C7.04869 13.9002 6.9398 14.8799 6.96472 15.6517C6.99079 16.4588 7.16522 17.1982 7.74306 17.776C8.3209 18.3538 9.06022 18.5283 9.86735 18.5543C10.6391 18.5793 11.6188 18.4704 12.8074 18.3383L12.9806 18.3191C13.6209 18.2485 14.1273 18.1926 14.5873 17.9715C15.0474 17.7504 15.4073 17.3899 15.8625 16.9339L21.1977 11.5987L20.6172 11.0422L14.4731 4.89803L13.9182 4.32359Z" fill="#227B94"/>
<path d="M22.3457 10.4481C22.7933 9.99366 23.1718 9.59058 23.4567 9.21725C23.8729 8.67168 24.1649 8.09526 24.1649 7.39745C24.1649 6.69964 23.8729 6.12323 23.4567 5.57766C23.0623 5.06077 22.4884 4.48686 21.8001 3.7986L21.7204 3.71896C21.0322 3.03069 20.4583 2.45673 19.9414 2.06237C19.3958 1.64611 18.8194 1.35416 18.1216 1.35416C17.4238 1.35416 16.8474 1.64611 16.3018 2.06237C15.9278 2.3477 15.524 2.72704 15.0686 3.17567L15.6369 3.76371L21.7542 9.88097L22.3457 10.4481Z" fill="#227B94"/>
</svg>
