<svg width="26" height="26" viewBox="0 0 26 26" fill="none" xmlns="http://www.w3.org/2000/svg">
<path d="M9.3715 11.2321C8.43431 10.3001 7.85415 9.00949 7.85415 7.58334C7.85415 6.15719 8.43431 4.86655 9.3715 3.93455C8.83192 3.66961 8.22499 3.52084 7.58331 3.52084C5.33966 3.52084 3.52081 5.33969 3.52081 7.58334C3.52081 9.827 5.33966 11.6458 7.58331 11.6458C8.22499 11.6458 8.83192 11.4971 9.3715 11.2321Z" fill="#FFDC7F"/>
<path d="M8.93748 7.58334C8.93748 5.33969 10.7563 3.52084 13 3.52084C15.2436 3.52084 17.0625 5.33969 17.0625 7.58334C17.0625 9.827 15.2436 11.6458 13 11.6458C10.7563 11.6458 8.93748 9.827 8.93748 7.58334Z" fill="#FFDC7F"/>
<path d="M16.6285 3.93455C17.5656 4.86655 18.1458 6.15719 18.1458 7.58334C18.1458 9.00949 17.5656 10.3001 16.6285 11.2321C17.168 11.4971 17.775 11.6458 18.4166 11.6458C20.6603 11.6458 22.4791 9.827 22.4791 7.58334C22.4791 5.33969 20.6603 3.52084 18.4166 3.52084C17.775 3.52084 17.168 3.66961 16.6285 3.93455Z" fill="#FFDC7F"/>
<path d="M5.68748 17.3333C5.68748 15.0897 7.50632 13.2708 9.74998 13.2708H16.25C18.4936 13.2708 20.3125 15.0897 20.3125 17.3333C20.3125 19.577 18.4936 21.3958 16.25 21.3958H9.74998C7.50632 21.3958 5.68748 19.577 5.68748 17.3333Z" fill="#FFDC7F"/>
<path d="M0.270813 16.25C0.270813 14.0064 2.08966 12.1875 4.33331 12.1875H9.74998C6.90802 12.1875 4.60415 14.4914 4.60415 17.3333C4.60415 18.4436 4.95578 19.4718 5.55374 20.3125H4.33331C2.08966 20.3125 0.270813 18.4937 0.270813 16.25Z" fill="#FFDC7F"/>
<path d="M21.3958 17.3333C21.3958 18.4436 21.0442 19.4718 20.4462 20.3125H21.6666C23.9103 20.3125 25.7291 18.4937 25.7291 16.25C25.7291 14.0064 23.9103 12.1875 21.6666 12.1875H16.25C19.0919 12.1875 21.3958 14.4914 21.3958 17.3333Z" fill="#FFDC7F"/>
</svg>
