<svg width="36" height="36" viewBox="0 0 36 36" fill="none" xmlns="http://www.w3.org/2000/svg">
<path fill-rule="evenodd" clip-rule="evenodd" d="M5.93237 6.09161C4.5 8.0631 4.5 10.8754 4.5 16.5V19.5C4.5 25.1246 4.5 27.9369 5.93237 29.9084C6.39497 30.5451 6.9549 31.105 7.59161 31.5676C9.5631 33 12.3754 33 18 33C23.6246 33 26.4369 33 28.4084 31.5676C29.0451 31.105 29.605 30.5451 30.0676 29.9084C31.5 27.9369 31.5 25.1246 31.5 19.5V16.5C31.5 10.8754 31.5 8.0631 30.0676 6.09161C29.605 5.4549 29.0451 4.89497 28.4084 4.43237C26.4369 3 23.6246 3 18 3C12.3754 3 9.5631 3 7.59161 4.43237C6.9549 4.89497 6.39497 5.4549 5.93237 6.09161ZM12 10.875C11.3787 10.875 10.875 11.3787 10.875 12C10.875 12.6213 11.3787 13.125 12 13.125H24C24.6213 13.125 25.125 12.6213 25.125 12C25.125 11.3787 24.6213 10.875 24 10.875H12ZM12 16.875C11.3787 16.875 10.875 17.3787 10.875 18C10.875 18.6213 11.3787 19.125 12 19.125H16.5C17.1213 19.125 17.625 18.6213 17.625 18C17.625 17.3787 17.1213 16.875 16.5 16.875H12ZM12 22.875C11.3787 22.875 10.875 23.3787 10.875 24C10.875 24.6213 11.3787 25.125 12 25.125H24C24.6213 25.125 25.125 24.6213 25.125 24C25.125 23.3787 24.6213 22.875 24 22.875H12Z" fill="#FFDC7F"/>
</svg>
