<svg width="36" height="36" viewBox="0 0 36 36" fill="none" xmlns="http://www.w3.org/2000/svg">
<path fill-rule="evenodd" clip-rule="evenodd" d="M7.59161 4.43237C7.74932 4.31779 7.91242 4.21237 8.0819 4.11538C8.13634 4.23664 8.21335 4.35023 8.31292 4.44979C10.2488 6.38555 11.7682 7.90263 13.1077 8.97467C14.4637 10.06 15.7336 10.7724 17.1968 11.0041C18.0907 11.1457 19.0013 11.1457 19.8953 11.0041C21.3175 10.7789 22.557 10.0995 23.8706 9.065C25.1675 8.04367 26.6233 6.60416 28.456 4.77281C28.5148 4.71405 28.5657 4.6504 28.6088 4.58318C29.163 5.01488 29.6542 5.52258 30.0676 6.09161C31.5 8.0631 31.5 10.8754 31.5 16.5V19.5C31.5 25.1246 31.5 27.9369 30.0676 29.9084C29.605 30.5451 29.0451 31.105 28.4084 31.5676C26.4369 33 23.6246 33 18 33C12.3754 33 9.5631 33 7.59161 31.5676C6.9549 31.105 6.39497 30.5451 5.93237 29.9084C4.5 27.9369 4.5 25.1246 4.5 19.5V16.5C4.5 10.8754 4.5 8.0631 5.93237 6.09161C6.39497 5.4549 6.9549 4.89497 7.59161 4.43237ZM12 13.875C11.3787 13.875 10.875 14.3787 10.875 15C10.875 15.6213 11.3787 16.125 12 16.125H16.5C17.1213 16.125 17.625 15.6213 17.625 15C17.625 14.3787 17.1213 13.875 16.5 13.875H12ZM12 19.875C11.3787 19.875 10.875 20.3787 10.875 21C10.875 21.6213 11.3787 22.125 12 22.125H24C24.6213 22.125 25.125 21.6213 25.125 21C25.125 20.3787 24.6213 19.875 24 19.875H12ZM12 25.875C11.3787 25.875 10.875 26.3787 10.875 27C10.875 27.6213 11.3787 28.125 12 28.125H16.5C17.1213 28.125 17.625 27.6213 17.625 27C17.625 26.3787 17.1213 25.875 16.5 25.875H12Z" fill="#227B94"/>
<path d="M18 3C22.0499 3 24.6418 3 26.5116 3.53471C24.831 5.21083 23.574 6.43462 22.4785 7.29735C21.3242 8.20642 20.4394 8.63989 19.5433 8.78182C18.8826 8.88647 18.2095 8.88647 17.5487 8.78182C16.6269 8.63582 15.7173 8.18137 14.5136 7.21803C13.3929 6.32106 12.1035 5.05564 10.3749 3.32951C12.1631 3 14.5536 3 18 3Z" fill="#227B94"/>
</svg>
