<?xml version="1.0" encoding="utf-8"?>
<!-- Generator: Adobe Illustrator 25.1.0, SVG Export Plug-In . SVG Version: 6.00 Build 0)  -->
<svg version="1.1" id="Layer_1" xmlns="http://www.w3.org/2000/svg" xmlns:xlink="http://www.w3.org/1999/xlink" x="0px" y="0px"
	 viewBox="0 0 14 16" style="enable-background:new 0 0 14 16;" xml:space="preserve">
<style type="text/css">
	.st0{fill-rule:evenodd;clip-rule:evenodd;fill:#A6ABC8;}
	.st1{fill:#A6ABC8;}
</style>
<g>
	<path class="st0" d="M1.8,1.1C1.9,1,2,1,2,0.9C2.1,1,2.1,1,2.2,1.1c1,1,1.7,1.7,2.4,2.3c0.7,0.5,1.3,0.9,2,1c0.4,0.1,0.9,0.1,1.3,0
		c0.7-0.1,1.3-0.5,2-1c0.6-0.5,1.4-1.2,2.3-2.1c0,0,0.1-0.1,0.1-0.1c0.3,0.2,0.5,0.5,0.7,0.8c0.7,1,0.7,2.4,0.7,5.2v1.5
		c0,2.8,0,4.2-0.7,5.2c-0.2,0.3-0.5,0.6-0.8,0.8c-1,0.7-2.4,0.7-5.2,0.7s-4.2,0-5.2-0.7c-0.3-0.2-0.6-0.5-0.8-0.8
		c-0.7-1-0.7-2.4-0.7-5.2V7.1c0-2.8,0-4.2,0.7-5.2C1.2,1.6,1.5,1.3,1.8,1.1z M4,5.8C3.7,5.8,3.4,6,3.4,6.4S3.7,6.9,4,6.9h6
		c0.3,0,0.6-0.3,0.6-0.6S10.3,5.8,10,5.8H4z M4,8.8C3.7,8.8,3.4,9,3.4,9.4S3.7,9.9,4,9.9h6c0.3,0,0.6-0.3,0.6-0.6S10.3,8.8,10,8.8H4
		z M4,11.8c-0.3,0-0.6,0.3-0.6,0.6s0.3,0.6,0.6,0.6h6c0.3,0,0.6-0.3,0.6-0.6s-0.3-0.6-0.6-0.6H4z"/>
	<path class="st1" d="M6.8,0.6c2,0,3.3,0,4.3,0.3c-0.8,0.8-1.5,1.4-2,1.9C8.4,3.2,8,3.5,7.6,3.5c-0.3,0.1-0.7,0.1-1,0
		C6.1,3.5,5.6,3.2,5,2.7C4.5,2.3,3.8,1.7,3,0.8C3.9,0.6,5.1,0.6,6.8,0.6z"/>
</g>
</svg>
