<?xml version="1.0" encoding="utf-8"?>
<!-- Generator: Adobe Illustrator 25.1.0, SVG Export Plug-In . SVG Version: 6.00 Build 0)  -->
<svg version="1.1" id="Layer_1" xmlns="http://www.w3.org/2000/svg" xmlns:xlink="http://www.w3.org/1999/xlink" x="0px" y="0px"
	 viewBox="0 0 14 16" style="enable-background:new 0 0 14 16;" xml:space="preserve">
<style type="text/css">
	.st0{fill-rule:evenodd;clip-rule:evenodd;fill:#FFFFFF;}
	.st1{fill:#FFFFFF;}
</style>
<g>
	<path class="st0" d="M1.8,1.2C1.9,1.2,2,1.1,2,1.1c0,0.1,0.1,0.1,0.1,0.2c1,1,1.7,1.7,2.4,2.3c0.7,0.5,1.3,0.9,2,1
		c0.4,0.1,0.9,0.1,1.3,0c0.7-0.1,1.3-0.5,2-1c0.6-0.5,1.4-1.2,2.3-2.1c0,0,0.1-0.1,0.1-0.1C12.6,1.5,12.8,1.8,13,2
		c0.7,1,0.7,2.4,0.7,5.2v1.5c0,2.8,0,4.2-0.7,5.2c-0.2,0.3-0.5,0.6-0.8,0.8c-1,0.7-2.4,0.7-5.2,0.7s-4.2,0-5.2-0.7
		C1.5,14.6,1.2,14.3,1,14c-0.7-1-0.7-2.4-0.7-5.2V7.2C0.2,4.4,0.2,3,1,2C1.2,1.7,1.5,1.4,1.8,1.2z M4,5.9c-0.3,0-0.6,0.3-0.6,0.6
		S3.7,7.1,4,7.1h6c0.3,0,0.6-0.3,0.6-0.6S10.3,5.9,10,5.9H4z M4,8.9c-0.3,0-0.6,0.3-0.6,0.6s0.3,0.6,0.6,0.6h6
		c0.3,0,0.6-0.3,0.6-0.6S10.3,8.9,10,8.9H4z M4,11.9c-0.3,0-0.6,0.3-0.6,0.6s0.3,0.6,0.6,0.6h6c0.3,0,0.6-0.3,0.6-0.6
		s-0.3-0.6-0.6-0.6H4z"/>
	<path class="st1" d="M6.8,0.5c2,0,3.3,0,4.3,0.3c-0.8,0.8-1.5,1.4-2,1.9C8.4,3.1,8,3.3,7.6,3.4c-0.3,0.1-0.7,0.1-1,0
		C6.1,3.3,5.6,3.1,5,2.6C4.5,2.2,3.8,1.5,3,0.7C3.9,0.5,5.1,0.5,6.8,0.5z"/>
</g>
</svg>
