<svg width="15" height="16" viewBox="0 0 15 16" fill="none" xmlns="http://www.w3.org/2000/svg">
<path fill-rule="evenodd" clip-rule="evenodd" d="M0.333252 6.66669C0.333252 3.35298 3.01954 0.666687 6.33325 0.666687C9.64696 0.666687 12.3333 3.35298 12.3333 6.66669C12.3333 9.9804 9.64696 12.6667 6.33325 12.6667C3.01954 12.6667 0.333252 9.9804 0.333252 6.66669ZM5.63896 2.62949C5.68216 2.90223 5.49607 3.15835 5.22333 3.20155C4.01097 3.39357 3.06013 4.3444 2.86811 5.55677C2.82491 5.82951 2.56879 6.01559 2.29605 5.97239C2.02331 5.92919 1.83723 5.67307 1.88042 5.40033C2.14021 3.76008 3.42664 2.47365 5.0669 2.21386C5.33964 2.17066 5.59576 2.35674 5.63896 2.62949Z" fill="white"/>
<path d="M11.313 11.6465C11.5083 11.4512 11.8249 11.4512 12.0201 11.6465L14.6867 14.3131C14.882 14.5084 14.882 14.8249 14.6867 15.0202C14.4915 15.2155 14.1749 15.2155 13.9796 15.0202L11.313 12.3536C11.1178 12.1583 11.1178 11.8417 11.313 11.6465Z" fill="white"/>
</svg>
