<?xml version="1.0" encoding="utf-8"?>
<!-- Generator: Adobe Illustrator 25.1.0, SVG Export Plug-In . SVG Version: 6.00 Build 0)  -->
<svg version="1.1" id="Layer_1" xmlns="http://www.w3.org/2000/svg" xmlns:xlink="http://www.w3.org/1999/xlink" x="0px" y="0px"
	 viewBox="0 0 15 16" style="enable-background:new 0 0 15 16;" xml:space="preserve">
<style type="text/css">
	.st0{fill-rule:evenodd;clip-rule:evenodd;fill:#FFFFFF;}
</style>
<path class="st0" d="M13.8,9.2c0.3,0.1,0.5,0.4,0.6,0.6c0.3,0.5,0.3,1,0,1.5l-0.5,0.9c-0.3,0.5-0.8,0.8-1.4,0.8
	c-0.3,0-0.6-0.1-0.8-0.2c-0.2-0.1-0.4-0.2-0.7-0.2c-0.8,0-1.4,0.6-1.4,1.4c0,0.9-0.7,1.5-1.6,1.5H7c-0.9,0-1.6-0.7-1.6-1.5
	c0-0.7-0.7-1.4-1.4-1.4c-0.3,0-0.5,0-0.7,0.2C3.1,12.9,2.7,13,2.5,13c-0.6,0-1.1-0.3-1.4-0.8l-0.5-0.9c-0.3-0.5-0.3-1.1,0-1.5
	c0.1-0.2,0.4-0.4,0.6-0.6c0.2-0.1,0.4-0.3,0.5-0.5c0.4-0.6,0.2-1.5-0.5-1.9c-0.8-0.4-1-1.4-0.6-2.1l0.5-0.9c0.4-0.7,1.4-1,2.2-0.6
	C4,3.6,4.8,3.4,5.2,2.7c0.1-0.2,0.2-0.4,0.2-0.7c0-0.3,0.1-0.6,0.2-0.8C5.9,0.8,6.4,0.5,7,0.5H8c0.6,0,1.1,0.3,1.4,0.8
	c0.1,0.2,0.2,0.5,0.2,0.8c0,0.2,0.1,0.5,0.2,0.7c0.4,0.6,1.3,0.9,1.9,0.5c0.8-0.4,1.7-0.2,2.2,0.6l0.5,0.9c0.4,0.7,0.2,1.7-0.6,2.1
	c-0.7,0.4-0.9,1.2-0.5,1.9C13.4,8.9,13.6,9.1,13.8,9.2z M5.3,8c0,1.2,1,2.1,2.2,2.1c1.2,0,2.2-0.9,2.2-2.1c0-1.2-1-2.1-2.2-2.1
	C6.3,5.9,5.3,6.8,5.3,8z"/>
</svg>
