<svg width="26" height="26" viewBox="0 0 26 26" fill="none" xmlns="http://www.w3.org/2000/svg">
<path d="M7.03708 0.356586C7.43844 0.155907 7.92649 0.318589 8.12716 0.719947L8.18435 0.834317C8.60371 1.67303 8.60371 2.66025 8.18435 3.49897L8.12716 3.61334C7.92649 4.01469 7.43844 4.17738 7.03708 3.9767C6.63572 3.77602 6.47304 3.28797 6.67372 2.88661L6.7309 2.77224C6.92152 2.39101 6.92152 1.94227 6.73091 1.56104L6.67372 1.44667C6.47304 1.04531 6.63572 0.557264 7.03708 0.356586Z" fill="#227B94"/>
<path d="M15.7037 0.356585C16.1051 0.155907 16.5932 0.31859 16.7938 0.719948L16.851 0.834318C17.2704 1.67303 17.2704 2.66025 16.851 3.49897L16.7938 3.61334C16.5931 4.0147 16.1051 4.17738 15.7037 3.97669C15.3024 3.77601 15.1397 3.28797 15.3404 2.88661L15.3976 2.77224C15.5882 2.39101 15.5882 1.94227 15.3976 1.56104L15.3404 1.44667C15.1397 1.04531 15.3024 0.557263 15.7037 0.356585Z" fill="#227B94"/>
<path d="M12.0971 0.356586C12.4985 0.557266 12.6612 1.04531 12.4605 1.44667L12.4033 1.56104C12.2127 1.94227 12.2127 2.39101 12.4033 2.77224L12.4605 2.88661C12.6612 3.28797 12.4985 3.77602 12.0971 3.9767C11.6958 4.17738 11.2077 4.01469 11.0071 3.61334L10.9499 3.49896C10.5305 2.66025 10.5305 1.67304 10.9499 0.834318L11.0071 0.719946C11.2077 0.318589 11.6958 0.155907 12.0971 0.356586Z" fill="#227B94"/>
<path fill-rule="evenodd" clip-rule="evenodd" d="M11.9183 4.60412C13.8185 4.60383 14.9732 4.60365 15.8975 4.89818C18.1709 5.6226 19.8308 7.58198 20.1716 9.94353C20.2279 10.3337 20.23 10.7416 20.1953 11.1993C22.0168 11.6007 23.3796 13.2245 23.3796 15.1666C23.3796 17.4103 21.5608 19.2291 19.3171 19.2291C19.185 19.2291 19.0543 19.2228 18.9252 19.2104L18.8314 19.7731C18.7135 20.4811 18.6414 20.9137 18.5274 21.293C17.8191 23.6493 15.7904 25.3679 13.3498 25.6791C12.9568 25.7292 12.5184 25.7292 11.8006 25.7291H11.667C10.9493 25.7292 10.5107 25.7292 10.1178 25.6791C7.67717 25.3679 5.64841 23.6493 4.94019 21.293C4.82616 20.9136 4.75409 20.4811 4.63613 19.773L3.6601 13.917C3.34743 12.0427 3.15741 10.9037 3.29598 9.94353C3.6368 7.58198 5.29664 5.6226 7.57003 4.89818C7.90761 4.79061 8.26594 4.72395 8.66601 4.68181V9.74998H8.39517C7.79686 9.74998 7.31184 10.235 7.31184 10.8333V13C7.31184 13.5983 7.79686 14.0833 8.39517 14.0833H10.5618C11.1601 14.0833 11.6452 13.5983 11.6452 13V10.8333C11.6452 10.235 11.1601 9.74998 10.5618 9.74998H10.291L10.291 4.60881C10.7114 4.60414 11.1843 4.60414 11.7191 4.60414L11.9183 4.60412ZM19.1934 17.6011C19.2344 17.6031 19.2756 17.6041 19.3171 17.6041C20.6633 17.6041 21.7546 16.5128 21.7546 15.1666C21.7546 14.0526 21.0073 13.1132 19.9866 12.8222C19.9269 13.2003 19.857 13.6194 19.7792 14.0866L19.1934 17.6011Z" fill="#227B94"/>
</svg>
