<svg width="14" height="16" viewBox="0 0 14 16" fill="none" xmlns="http://www.w3.org/2000/svg">
<path fill-rule="evenodd" clip-rule="evenodd" d="M4.1075 0.5H10.3932C12.71 0.5 14 1.835 14 4.1225V11.87C14 14.195 12.71 15.5 10.3932 15.5H4.1075C1.8275 15.5 0.5 14.195 0.5 11.87V4.1225C0.5 1.835 1.8275 0.5 4.1075 0.5ZM4.31011 3.995V3.9875H6.55185C6.8751 3.9875 7.1376 4.25 7.1376 4.57175C7.1376 4.9025 6.8751 5.165 6.55185 5.165H4.31011C3.98686 5.165 3.72511 4.9025 3.72511 4.58C3.72511 4.2575 3.98686 3.995 4.31011 3.995ZM4.31011 8.555H10.1901C10.5126 8.555 10.7751 8.2925 10.7751 7.97C10.7751 7.6475 10.5126 7.38425 10.1901 7.38425H4.31011C3.98686 7.38425 3.72511 7.6475 3.72511 7.97C3.72511 8.2925 3.98686 8.555 4.31011 8.555ZM4.31002 11.9825H10.19C10.4893 11.9525 10.715 11.6968 10.715 11.3975C10.715 11.09 10.4893 10.835 10.19 10.805H4.31002C4.08502 10.7825 3.86752 10.8875 3.74752 11.0825C3.62752 11.27 3.62752 11.5175 3.74752 11.7125C3.86752 11.9 4.08502 12.0125 4.31002 11.9825Z" fill="#A6ABC8"/>
</svg>
