<?xml version="1.0" encoding="utf-8"?>
<!-- Generator: Adobe Illustrator 25.1.0, SVG Export Plug-In . SVG Version: 6.00 Build 0)  -->
<svg version="1.1" id="Layer_1" xmlns="http://www.w3.org/2000/svg" xmlns:xlink="http://www.w3.org/1999/xlink" x="0px" y="0px"
	 viewBox="0 0 1000 300.6" style="enable-background:new 0 0 1000 300.6;" xml:space="preserve">
<style type="text/css">
	.st0{fill:#273240;}
</style>
<g id="layer_1">
	<g>
		<g>
			<path class="st0" d="M340.7,262.5c1.7,1,2.5,2.6,2.6,4.6v0.4h-6.1v-0.1c0-0.6-0.2-1.1-0.6-1.5c-0.4-0.4-1.1-0.6-2-0.6
				c-0.9,0-1.5,0.1-2,0.4c-0.5,0.3-0.7,0.6-0.7,0.9c0,0.5,0.3,0.9,0.9,1.2c0.6,0.3,1.6,0.5,3,0.8c1.6,0.3,2.9,0.7,4,1
				c1,0.4,2,1,2.7,1.8c0.8,0.8,1.2,1.9,1.2,3.3c0,2.4-0.8,4.1-2.4,5.3c-1.6,1.2-3.8,1.7-6.5,1.7c-3.1,0-5.6-0.5-7.3-1.6
				c-1.8-1.1-2.6-2.9-2.6-5.6h6.1c0,1,0.3,1.7,0.8,2c0.5,0.3,1.3,0.5,2.5,0.5c0.8,0,1.5-0.1,2-0.3c0.5-0.2,0.8-0.5,0.8-1.1
				c0-0.5-0.3-0.9-0.9-1.1c-0.6-0.2-1.6-0.5-2.9-0.8c-1.6-0.4-3-0.7-4.1-1.1c-1.1-0.4-2-1-2.8-1.9c-0.8-0.9-1.2-2.1-1.2-3.6
				c0-2.2,0.9-3.8,2.6-4.9c1.7-1,3.9-1.6,6.5-1.6C336.9,260.9,339,261.5,340.7,262.5"/>
			<path class="st0" d="M353.9,272.9v1.7c0,2.2,1,3.3,2.9,3.3c1.9,0,2.9-1.1,2.9-3.3v-1.7c0-2.2-1-3.3-2.9-3.3
				C354.9,269.6,353.9,270.7,353.9,272.9 M363.2,267.7c1.5,1.4,2.3,3.4,2.3,6s-0.8,4.6-2.3,6c-1.5,1.4-3.7,2.1-6.4,2.1
				s-4.8-0.7-6.4-2c-1.5-1.4-2.3-3.4-2.3-6s0.8-4.7,2.3-6c1.5-1.4,3.7-2,6.4-2S361.6,266.3,363.2,267.7"/>
			<path class="st0" d="M384.7,267.2c1.6,1.1,2.4,2.7,2.4,5h-5.7c0-1.8-1-2.6-2.9-2.6c-1.9,0-2.9,1.1-2.9,3.3v1.7c0,2.2,1,3.3,3,3.3
				c2,0,3-0.9,3-2.7h5.4c0,2.2-0.8,3.9-2.4,5c-1.6,1.1-3.6,1.6-6.2,1.6c-2.7,0-4.8-0.7-6.4-2c-1.5-1.4-2.3-3.4-2.3-6s0.8-4.7,2.3-6
				c1.5-1.4,3.7-2,6.4-2C381,265.6,383.1,266.2,384.7,267.2"/>
			<path class="st0" d="M392.4,266h5.8v15.5h-5.8V266z M392.4,260.2h5.8v4h-5.8V260.2z"/>
			<path class="st0" d="M410.3,275.2c-0.8,0.4-1.2,0.8-1.2,1.5c0,1,0.7,1.5,2,1.5c0.8,0,1.4-0.2,2-0.6c0.6-0.4,0.9-0.9,0.9-1.5v-1.3
				C412.3,274.7,411.1,274.9,410.3,275.2 M417.6,266.8c1.5,0.8,2.2,2.1,2.2,3.9v6c0,0.3,0.1,0.6,0.2,0.8c0.2,0.2,0.4,0.3,0.7,0.3
				h1.1v3.4c-0.1,0-0.2,0.1-0.5,0.2c-0.2,0.1-0.6,0.2-1,0.3c-0.5,0.1-1,0.1-1.5,0.1c-1.1,0-2.1-0.2-2.8-0.5
				c-0.7-0.3-1.2-0.8-1.5-1.4c-0.7,0.6-1.6,1.1-2.5,1.4c-0.9,0.4-2,0.5-3.2,0.5c-3.6,0-5.5-1.4-5.5-4.3c0-1.5,0.4-2.7,1.2-3.4
				c0.8-0.8,2-1.3,3.5-1.6c1.5-0.3,3.5-0.4,6-0.4v-0.8c0-0.6-0.2-1.1-0.6-1.4c-0.4-0.3-1-0.5-1.6-0.5c-0.6,0-1.1,0.1-1.6,0.3
				c-0.4,0.2-0.7,0.6-0.7,1v0.1h-5.7c0-0.1,0-0.2,0-0.4c0-1.5,0.7-2.6,2.1-3.5c1.4-0.9,3.4-1.3,6-1.3
				C414.2,265.6,416.1,266,417.6,266.8"/>
			<path class="st0" d="M426.1,260.2h5.8v21.2h-5.8V260.2z"/>
			<path class="st0" d="M465,262.5c1.7,1,2.5,2.6,2.6,4.6v0.4h-6.1v-0.1c0-0.6-0.2-1.1-0.6-1.5c-0.4-0.4-1.1-0.6-2-0.6
				c-0.9,0-1.5,0.1-2,0.4c-0.5,0.3-0.7,0.6-0.7,0.9c0,0.5,0.3,0.9,0.9,1.2c0.6,0.3,1.6,0.5,3,0.8c1.6,0.3,2.9,0.7,4,1
				c1,0.4,2,1,2.7,1.8c0.8,0.8,1.2,1.9,1.2,3.3c0,2.4-0.8,4.1-2.4,5.3c-1.6,1.2-3.8,1.7-6.5,1.7c-3.1,0-5.6-0.5-7.3-1.6
				c-1.8-1.1-2.6-2.9-2.6-5.6h6.1c0,1,0.3,1.7,0.8,2c0.5,0.3,1.3,0.5,2.5,0.5c0.8,0,1.5-0.1,2-0.3c0.5-0.2,0.8-0.5,0.8-1.1
				c0-0.5-0.3-0.9-0.9-1.1c-0.6-0.2-1.6-0.5-2.9-0.8c-1.6-0.4-3-0.7-4.1-1.1c-1.1-0.4-2-1-2.8-1.9c-0.8-0.9-1.2-2.1-1.2-3.6
				c0-2.2,0.9-3.8,2.6-4.9c1.7-1,3.9-1.6,6.5-1.6C461.3,260.9,463.4,261.5,465,262.5"/>
			<path class="st0" d="M479.6,270.8c-0.4,0.6-0.6,1.4-0.6,2.4v1c0,1,0.2,1.8,0.6,2.4c0.4,0.6,1.1,0.9,1.9,0.9c1.7,0,2.5-1,2.5-3
				v-1.6c0-2-0.8-3-2.5-3C480.7,269.9,480,270.2,479.6,270.8 M488.2,267.7c1.1,1.4,1.7,3.4,1.7,6.1c0,2.7-0.6,4.7-1.7,6
				c-1.1,1.4-2.7,2-4.8,2c-1.8,0-3.2-0.6-4.3-1.8v7.2h-5.8V266h4.7l0.5,2.2c1.1-1.7,2.8-2.5,4.9-2.5
				C485.4,265.6,487.1,266.3,488.2,267.7"/>
			<path class="st0" d="M501,275.2c-0.8,0.4-1.2,0.8-1.2,1.5c0,1,0.7,1.5,2,1.5c0.8,0,1.4-0.2,2-0.6c0.6-0.4,0.9-0.9,0.9-1.5v-1.3
				C503,274.7,501.8,274.9,501,275.2 M508.3,266.8c1.5,0.8,2.2,2.1,2.2,3.9v6c0,0.3,0.1,0.6,0.2,0.8c0.2,0.2,0.4,0.3,0.7,0.3h1.1
				v3.4c-0.1,0-0.2,0.1-0.5,0.2c-0.2,0.1-0.6,0.2-1,0.3c-0.5,0.1-1,0.1-1.5,0.1c-1.1,0-2.1-0.2-2.8-0.5c-0.7-0.3-1.2-0.8-1.5-1.4
				c-0.7,0.6-1.6,1.1-2.5,1.4c-0.9,0.4-2,0.5-3.2,0.5c-3.6,0-5.5-1.4-5.5-4.3c0-1.5,0.4-2.7,1.2-3.4c0.8-0.8,2-1.3,3.5-1.6
				c1.5-0.3,3.5-0.4,6-0.4v-0.8c0-0.6-0.2-1.1-0.6-1.4c-0.4-0.3-1-0.5-1.6-0.5c-0.6,0-1.1,0.1-1.6,0.3c-0.4,0.2-0.7,0.6-0.7,1v0.1
				h-5.7c0-0.1,0-0.2,0-0.4c0-1.5,0.7-2.6,2.1-3.5c1.4-0.9,3.4-1.3,6-1.3C504.9,265.6,506.8,266,508.3,266.8"/>
			<path class="st0" d="M530.8,267.2c1.6,1.1,2.4,2.7,2.4,5h-5.7c0-1.8-1-2.6-2.9-2.6c-1.9,0-2.9,1.1-2.9,3.3v1.7c0,2.2,1,3.3,3,3.3
				c2,0,3-0.9,3-2.7h5.4c0,2.2-0.8,3.9-2.4,5c-1.6,1.1-3.6,1.6-6.2,1.6c-2.7,0-4.8-0.7-6.4-2c-1.5-1.4-2.3-3.4-2.3-6s0.8-4.7,2.3-6
				c1.5-1.4,3.7-2,6.4-2C527.2,265.6,529.2,266.2,530.8,267.2"/>
			<path class="st0" d="M543.5,271.9h5.7c0-0.8-0.2-1.4-0.7-1.9c-0.5-0.5-1.1-0.7-1.9-0.7C544.7,269.3,543.7,270.2,543.5,271.9
				 M552.8,267.6c1.5,1.3,2.2,3.4,2.2,6.1v1h-11.6c0,1.1,0.3,2,0.7,2.5c0.5,0.6,1.3,0.9,2.4,0.9c1,0,1.7-0.2,2.2-0.6
				c0.5-0.4,0.7-1,0.7-1.6h5.7c0,1.9-0.7,3.3-2.1,4.4c-1.4,1.1-3.5,1.6-6.2,1.6c-2.9,0-5.1-0.7-6.7-2c-1.6-1.3-2.4-3.4-2.4-6.1
				c0-2.7,0.8-4.7,2.3-6c1.5-1.4,3.7-2,6.4-2C549.2,265.6,551.3,266.3,552.8,267.6"/>
			<path class="st0" d="M587.7,261.7c1.5,0.5,2.6,1.2,3.4,2c0.8,0.8,1.2,1.8,1.2,2.8v0.7H587c0-0.6-0.4-1.1-1.1-1.5
				c-0.7-0.4-1.7-0.6-3.1-0.6c-1.2,0-2.2,0.2-2.9,0.7c-0.7,0.5-1,1.1-1,1.7c0,0.6,0.2,1.1,0.6,1.4c0.4,0.3,0.9,0.5,1.5,0.5h3v3.6
				h-3.7c-0.6,0-1.1,0.2-1.5,0.5c-0.4,0.4-0.6,0.9-0.6,1.6c0,0.8,0.3,1.4,1,1.9c0.7,0.5,1.7,0.7,3.2,0.7c2.9,0,4.4-0.9,4.4-2.6v-5.7
				h9.3v3.6h-4v2c0,2.2-0.8,3.9-2.3,5.1c-1.5,1.2-4,1.8-7.3,1.8c-3.4,0-5.9-0.5-7.6-1.6c-1.7-1.1-2.5-2.5-2.5-4.3
				c0-1.2,0.3-2.2,0.9-3c0.6-0.9,1.5-1.4,2.6-1.8v-0.1c-0.8-0.3-1.5-0.9-2.1-1.6c-0.6-0.8-0.8-1.6-0.8-2.5c0-1.1,0.4-2,1.1-2.9
				c0.7-0.9,1.8-1.6,3.2-2.1c1.4-0.5,3.1-0.8,5.2-0.8C584.5,260.9,586.2,261.2,587.7,261.7"/>
			<path class="st0" d="M624.6,266.4c-0.4-0.4-0.8-0.5-1.3-0.5h-4.2v3.7h4.2c0.5,0,0.9-0.2,1.3-0.5c0.4-0.4,0.5-0.8,0.5-1.3
				C625.2,267.2,625,266.8,624.6,266.4 M630.8,270.8c-0.7,1-1.6,1.7-2.9,2.2l4.5,8.4h-7.3l-3.6-7.4h-2.4v7.4h-6.5v-20.1H625
				c1.4,0,2.7,0.3,3.7,0.8c1,0.6,1.8,1.3,2.3,2.3c0.5,0.9,0.8,2,0.8,3.1C631.7,268.7,631.4,269.8,630.8,270.8"/>
			<path class="st0" d="M641.6,272.9v1.7c0,2.2,1,3.3,2.9,3.3c1.9,0,2.9-1.1,2.9-3.3v-1.7c0-2.2-1-3.3-2.9-3.3
				C642.5,269.6,641.6,270.7,641.6,272.9 M650.8,267.7c1.5,1.4,2.3,3.4,2.3,6s-0.8,4.6-2.3,6c-1.5,1.4-3.7,2.1-6.4,2.1
				s-4.8-0.7-6.4-2c-1.5-1.4-2.3-3.4-2.3-6s0.8-4.7,2.3-6c1.5-1.4,3.7-2,6.4-2S649.3,266.3,650.8,267.7"/>
			<path class="st0" d="M664.3,275.2c-0.8,0.4-1.2,0.8-1.2,1.5c0,1,0.7,1.5,2,1.5c0.8,0,1.4-0.2,2-0.6c0.6-0.4,0.9-0.9,0.9-1.5v-1.3
				C666.3,274.7,665.1,274.9,664.3,275.2 M671.6,266.8c1.5,0.8,2.2,2.1,2.2,3.9v6c0,0.3,0.1,0.6,0.2,0.8c0.2,0.2,0.4,0.3,0.7,0.3
				h1.1v3.4c-0.1,0-0.2,0.1-0.5,0.2c-0.2,0.1-0.6,0.2-1,0.3c-0.5,0.1-1,0.1-1.5,0.1c-1.1,0-2.1-0.2-2.8-0.5
				c-0.7-0.3-1.2-0.8-1.5-1.4c-0.7,0.6-1.6,1.1-2.5,1.4c-0.9,0.4-2,0.5-3.2,0.5c-3.6,0-5.5-1.4-5.5-4.3c0-1.5,0.4-2.7,1.2-3.4
				c0.8-0.8,2-1.3,3.5-1.6c1.5-0.3,3.5-0.4,6-0.4v-0.8c0-0.6-0.2-1.1-0.6-1.4c-0.4-0.3-1-0.5-1.6-0.5c-0.6,0-1.1,0.1-1.6,0.3
				c-0.4,0.2-0.7,0.6-0.7,1v0.1h-5.7c0-0.1,0-0.2,0-0.4c0-1.5,0.7-2.6,2.1-3.5c1.4-0.9,3.4-1.3,6-1.3
				C668.2,265.6,670.1,266,671.6,266.8"/>
			<path class="st0" d="M692.5,266.8c1.4,0.8,2.2,2.1,2.2,3.8h-5.4c0-0.6-0.3-1-0.8-1.2c-0.4-0.2-0.8-0.3-1.3-0.3
				c-1.4,0-2.1,0.3-2.1,1c0,0.4,0.2,0.6,0.7,0.8c0.5,0.2,1.3,0.3,2.4,0.5c1.4,0.2,2.5,0.4,3.4,0.7c0.9,0.3,1.7,0.7,2.4,1.4
				c0.7,0.7,1,1.6,1,2.8c0,2-0.7,3.4-2.2,4.2c-1.5,0.8-3.4,1.3-5.8,1.3c-1.4,0-2.7-0.2-3.9-0.6c-1.2-0.4-2.2-1-3-1.8
				c-0.8-0.8-1.1-1.8-1.1-3h5.4v0.1c0,0.7,0.3,1.1,0.8,1.4c0.5,0.3,1.1,0.4,1.7,0.4c1.6,0,2.4-0.4,2.4-1.1c0-0.4-0.3-0.7-0.8-0.9
				c-0.5-0.2-1.3-0.4-2.5-0.6c-1.4-0.2-2.5-0.5-3.4-0.8c-0.9-0.3-1.7-0.7-2.3-1.4c-0.7-0.7-1-1.6-1-2.7c0-1.9,0.7-3.2,2.2-4
				c1.4-0.8,3.3-1.2,5.6-1.2C689.3,265.6,691.1,266,692.5,266.8"/>
			<path class="st0" d="M710.3,266v4H707v5.9c0,0.7,0.1,1.2,0.4,1.5c0.2,0.3,0.7,0.5,1.3,0.5h1.6v3.4c-0.5,0.2-1.1,0.3-1.8,0.4
				c-0.7,0.1-1.4,0.1-1.9,0.1c-1.7,0-3-0.3-4-0.9c-0.9-0.6-1.4-1.7-1.4-3.2v-7.7H699v-4h2.4l1.3-4.7h4.3v4.7H710.3z"/>
			<path class="st0" d="M720.3,271.9h5.7c0-0.8-0.2-1.4-0.7-1.9c-0.5-0.5-1.1-0.7-1.9-0.7C721.6,269.3,720.6,270.2,720.3,271.9
				 M729.7,267.6c1.5,1.3,2.2,3.4,2.2,6.1v1h-11.6c0,1.1,0.3,2,0.7,2.5c0.5,0.6,1.3,0.9,2.4,0.9c1,0,1.7-0.2,2.2-0.6
				c0.5-0.4,0.7-1,0.7-1.6h5.7c0,1.9-0.7,3.3-2.1,4.4c-1.4,1.1-3.5,1.6-6.2,1.6c-2.9,0-5.1-0.7-6.7-2c-1.6-1.3-2.4-3.4-2.4-6.1
				c0-2.7,0.8-4.7,2.3-6c1.5-1.4,3.7-2,6.4-2C726,265.6,728.2,266.3,729.7,267.6"/>
			<path class="st0" d="M747.5,265.7c0.4,0.1,0.5,0.2,0.5,0.2v4.9h-1.9c-1.2,0-2.1,0.3-2.6,0.9c-0.5,0.6-0.8,1.6-0.8,2.8v6.9h-5.8
				V266h4.8l0.4,2.3c0.4-0.9,0.9-1.6,1.7-2c0.8-0.5,1.6-0.7,2.6-0.7C746.8,265.6,747.2,265.6,747.5,265.7"/>
			<path class="st0" d="M761.5,285.9c-1.2,1.1-2.8,1.7-4.9,1.7c-1.3,0-2.4-0.2-3.4-0.5v-3.5h2.3c1.5,0,2.3-0.7,2.6-2.1l-6.1-15.5
				h6.3l3,10.3h0.2l2.7-10.3h5.7l-5.5,15C763.7,283.1,762.7,284.8,761.5,285.9"/>
			<path class="st0" d="M181,146.2c-2.5,0-4.5-2-4.5-4.5v-35.4c0-36.5-29.7-66.1-66.1-66.1s-66.1,29.7-66.1,66.1v35.4
				c0,2.5-2,4.5-4.5,4.5c-2.5,0-4.5-2-4.5-4.5v-35.4c0-41.5,33.7-75.2,75.2-75.2c41.4,0,75.2,33.7,75.2,75.2v35.4
				C185.5,144.2,183.5,146.2,181,146.2"/>
			<path class="st0" d="M185.5,160L185.5,160c0,2.5-2,4.5-4.5,4.5H39.9c-2.4,0-4.5-1.7-4.7-4.1c-0.3-2.7,1.9-5,4.5-5H181
				C183.5,155.4,185.5,157.5,185.5,160"/>
			<path class="st0" d="M176.4,185.8c0,17.7-6.8,34.3-19.3,46.8c-8.7,8.7-19.3,14.6-30.9,17.4c-4.8,1.2-9.7,1.8-14.8,1.9
				c0.1-0.7,0.3-1.5,0.5-2.3c4.8-20.1,19.8-59.2,64.5-66.3V185.8z M180.5,173.8c-40.2,4-60.2,29.8-70.2,52.3
				c-2,4.4-3.5,8.7-4.8,12.6c-0.1,0.1-0.1,0.1,0,0.1c-0.9,2.6-1.5,5-2.1,7.3c-0.4,2-0.9,3.8-1.2,5.4c-0.3,1.5-0.5,2.9-0.7,4.1
				l-0.1,0.3l-0.7,4.4v0.2l3.2,0.2l1.8,0.1h0.3c1.5,0.1,2.9,0.1,4.4,0.1c20.1,0,38.9-7.9,53.1-22c14.2-14.2,22-33.1,22-53.2v-12.6
				L180.5,173.8z"/>
			<path class="st0" d="M108.1,247.2c1.8-5,3.7-9.8,5.3-13.7c-0.9-2.4-1.9-4.9-3-7.5c-10-22.5-30.1-48.3-70.2-52.3l-5-0.5v12.6
				c0,20.1,7.9,39,22,53.2c11.9,11.9,27,19.3,43.5,21.3c1,0.2,2.1,0.4,3.2,0.4c0.1-0.1,0.1-0.3,0.1-0.4c0.2-0.9,0.4-1.7,0.7-2.6
				c0.6-2,1.2-3.9,1.9-5.9c-0.3,0-0.6,0-0.9-0.1c-1.2-0.1-2.3-0.1-3.5-0.3c-2.6-0.4-5.2-0.9-7.8-1.5c-11.5-2.9-22.2-8.8-30.9-17.4
				c-12.5-12.5-19.3-29.1-19.3-46.8v-2.4c37.5,5.9,54.2,34.4,61.4,55.3c-0.1,0.1-0.1,0.1,0,0.1C106.5,241.8,107.4,244.7,108.1,247.2
				"/>
			<path class="st0" d="M132.5,164.5c-0.9,0-1.8-0.3-2.6-0.8c-2.1-1.4-2.6-4.2-1.2-6.3c13.6-19.8,8.7-30.1,2.5-43.1
				c-5.2-10.8-11-23-6.1-41.2c0.6-2.4,3.1-3.8,5.6-3.2c2.4,0.6,3.9,3.1,3.2,5.6c-4,15,0.6,24.7,5.5,35c6.6,13.8,13.4,28-3.2,52.1
				C135.4,163.8,134,164.5,132.5,164.5"/>
			<path class="st0" d="M89.9,164.5c-0.9,0-1.8-0.3-2.6-0.8c-2.1-1.4-2.6-4.2-1.2-6.3c13.6-19.8,8.7-30.1,2.5-43.1
				c-5.2-10.8-11-23-6.1-41.2c0.6-2.4,3.1-3.8,5.6-3.2c2.4,0.6,3.9,3.1,3.2,5.6c-4,15,0.6,24.7,5.5,35c6.6,13.8,13.4,28-3.2,52.1
				C92.8,163.8,91.4,164.5,89.9,164.5"/>
			<path class="st0" d="M111.2,164.5c-1.1,0-2.2-0.4-3.1-1.2c-1.8-1.7-2-4.6-0.3-6.4c12.9-14.1,8-27.2,1.1-45.2
				c-7.6-20-17-44.8-1.9-77.9c1-2.3,3.7-3.3,6-2.2c2.3,1,3.3,3.7,2.2,6c-13.5,29.7-5.2,51.6,2.1,70.9c7.1,18.7,13.8,36.4-2.9,54.6
				C113.7,164,112.5,164.5,111.2,164.5"/>
			<path class="st0" d="M106,260.9c-2.1,0-4-1.5-4.4-3.6c-0.5-2.5,1.1-4.8,3.6-5.3c12.8-2.6,17.8-11.4,23.7-21.7
				c5.8-10.2,12.4-21.7,27.6-25.5c2.4-0.6,4.9,0.9,5.5,3.3c0.6,2.4-0.9,4.9-3.3,5.5c-11.5,2.8-16.3,11.3-21.9,21.1
				c-6.1,10.7-13,22.8-29.8,26.2C106.6,260.9,106.3,260.9,106,260.9"/>
			<path class="st0" d="M107.5,249c-0.3,1-0.7,1.9-1,2.9c-0.7,2-1.3,3.9-1.8,5.9c-0.1,0-0.2-0.1-0.2-0.1c-4-2-7.2-4.6-10-7.6
				C90.1,245.4,87,240,84,234.7c-5.6-9.8-10.4-18.3-21.9-21.1c-2.4-0.6-3.9-3-3.3-5.5c0.6-2.4,3-3.9,5.5-3.3
				c15.3,3.7,21.8,15.3,27.6,25.4C96.2,237.7,100.3,244.9,107.5,249"/>
			<path class="st0" d="M194.6,185.9c0,46.5-37.7,84.2-84.2,84.2c-46.6,0-84.3-37.7-84.3-84.2v-79.6c0-46.5,37.7-84.2,84.3-84.2
				c23.2,0,44.3,9.4,59.5,24.7c14.1,14,23.2,33.1,24.5,54.2c0.1,1.8,0.1,3.5,0.1,5.4V185.9z M203.4,100.4c-3-48.8-43.5-87.4-93-87.4
				c-25.8,0-49.1,10.4-66,27.3C27.5,57.2,17,80.5,17,106.2v79.6c0,51.5,41.7,93.2,93.3,93.2c25.7,0,49.1-10.4,65.9-27.3
				c16.9-16.8,27.3-40.2,27.3-65.9v-79.6C203.6,104.3,203.5,102.3,203.4,100.4"/>
			<path class="st0" d="M256.2,227h-1.4c-1.6,0-2.9-0.4-3.7-1.3c-0.9-0.9-1.5-1.8-1.8-2.9c-0.4-1.2-0.7-2.5-0.9-4v-67.5
				c-15.6-4-22.6-10.5-25.6-14.4c8.3,2.2,17.1,4.3,25.6,5.2v-20.9c0-1,0.1-1.8,0.2-2.6h-35.3c0.1,0.8,0.1,1.4,0.1,1.8v99.8
				c0,1.7-0.3,3-0.8,4c-0.6,1-1.2,1.7-1.9,2.1c-1,0.4-2,0.7-3,0.8h-1.2c-1.1,0-1.5,0.4-1.1,1.2l0.4,0.9c0.4,0.7,0.9,1,1.6,1H255
				c0.5,0,1-0.2,1.3-0.8l0.7-1.2C257.5,227.4,257.2,227,256.2,227"/>
			<path class="st0" d="M403.3,227h-1.4c-1.6,0-2.9-0.4-3.7-1.3c-0.9-0.9-1.5-1.8-1.8-2.9c-0.5-1.2-0.8-2.5-0.9-4v-51
				c0-15.4-12.5-27.9-27.9-27.9h-21.3V114c0-3.5,0.7-6.2,2.1-8.1c1.4-2,2.6-3.2,3.5-3.8c0.6-0.4,0.7-0.9,0.2-1.5
				c-0.1-0.4-0.4-0.5-1-0.5c-0.4,0-0.6,0.1-0.7,0.1c-2.4,1.2-5.3,2.4-8.9,3.7c-3.6,1.4-7.3,2.6-11.1,3.7c-3.7,1.2-7.4,2.2-11,3.2
				c-3.5,1-6.5,1.6-8.8,1.9c-1,0.3-1.2,0.7-1,1.4c0,1.1,0.4,1.5,1.2,1.2c0.7,0,1.5,0.1,2.4,0.1c0.9,0.1,1.6,0.4,2.4,0.7
				c0.7,0.4,1.4,0.9,2,1.5c0.6,0.7,0.9,1.7,0.9,3v99.4c0,1.7-0.3,3-0.9,4c-0.6,1-1.2,1.7-1.9,2.1c-1,0.4-1.9,0.7-2.9,0.8h-1.2
				c-1,0-1.4,0.4-1,1.2l0.4,0.9c0.3,0.7,0.9,1,1.5,1h40.7c0.6,0,1-0.2,1.4-0.8l0.7-1.2c0.4-0.8,0.1-1.2-0.9-1.2h-1.5
				c-1.6,0-2.9-0.4-3.7-1.3c-0.8-0.9-1.5-1.8-1.8-2.9c-0.4-1.2-0.7-2.5-0.8-4v-76.1c1.1-0.2,2.5-0.4,4.2-0.7
				c1.6-0.2,3.3-0.3,5.1-0.3c3,0,5.8,0.6,8.2,1.8c2.6,1.2,3.8,3.5,3.8,7v69.9l-0.4,8.5c0,1,0.5,1.5,1.5,1.5h33.4
				c0.5,0,1-0.2,1.3-0.8l0.7-1.2C404.6,227.4,404.3,227,403.3,227"/>
			<path class="st0" d="M486.6,141.7l-0.2-0.4c-0.1-0.4-0.4-0.5-1-0.5c-0.2,0-0.4,0.1-0.5,0.1c-2.1,1.5-4.1,2.7-6.2,4
				c-2.1,1.2-4.3,2.4-6.8,3.6c-2.4,1.1-5.2,2.2-8.3,3.2c-3.1,1-6.7,1.9-10.9,2.9v-2.3c0-1.8,0.1-3.5,0.6-5.4c0.4-1.8,0.7-3.1,1-3.9
				c0-0.7-0.1-1.2-0.3-1.5l-0.2-0.2c-0.1-0.4-0.5-0.5-1.2-0.5H452c-3,0.7-6.2,1.5-9.5,2.5c-3.3,0.9-6.5,1.8-9.7,2.6
				c-3.2,0.8-6.1,1.5-8.8,2.2c-2.7,0.7-5.1,1-7.1,1.2c-0.9,0.3-1.2,0.7-1,1.5c0,1,0.4,1.5,1.2,1.2c0.7,0,1.5,0.1,2.4,0.2
				c0.9,0.1,1.7,0.3,2.4,0.7c0.7,0.4,1.5,0.9,2.1,1.6c0.5,0.7,0.8,1.7,0.8,2.9v62.7c0,1.7-0.3,3-0.8,4c-0.6,1-1.2,1.7-2,2.1
				c-1,0.4-1.9,0.7-2.9,0.8h-1.2c-1,0-1.4,0.4-1,1.2l0.4,0.9c0.3,0.7,0.9,1,1.5,1h40.7c0.6,0,1-0.2,1.4-0.8l0.7-1.2
				c0.4-0.8,0.1-1.2-0.9-1.2h-1.4c-1.6,0-2.9-0.4-3.7-1.3c-0.9-0.9-1.5-1.8-1.8-2.9c-0.5-1.2-0.8-2.5-0.9-4v-61.8l3.5-0.2
				c3.2,0.1,5.4,1,6.8,2.5c1.3,1.5,2.6,3.1,3.8,4.9c1.2,1.8,2.9,3.4,4.9,4.8c2.1,1.5,5.2,2.1,9.5,2.1h2.3c1.3-0.2,1.8-0.9,1.6-1.9
				c-0.4-1.8-0.5-4.1-0.4-6.7c0.1-2.6,0.3-5.3,0.6-7.9c0.3-2.6,0.6-5,1-7.2c0.4-2.1,0.6-3.6,0.7-4.4c0.1-0.2,0.1-0.4,0-0.7
				C486.8,142.2,486.7,142,486.6,141.7"/>
			<path class="st0" d="M525.6,189.6c-2-5-3.7-10.1-5.1-15.3c-1.4-5.1-2.1-9.7-2.1-13.7c0-5.1,1.3-9,4-11.6c2.8-2.6,5.8-4,9.3-4
				c1.8,0,3.7,0.4,5.6,1.2c1.8,0.8,3.5,2.1,4.9,3.7c1.5,1.6,2.6,3.7,3.5,6.2c0.9,2.6,1.2,5.5,1.2,9c0,6.6-1.5,11.8-4.6,15.7
				c-3.1,3.8-7.6,7.2-13.6,10.1c-0.2,0.1-0.6,0.1-1,0.1C526.7,191.2,525.9,190.7,525.6,189.6 M581.9,194c-2.1-1.9-4.6-2.8-7.4-2.8
				c-2.8,0-5.2,0.8-7.2,2.5c-2,1.7-2.9,3.7-2.9,6c0,2.4,0.8,4.2,2.4,5.6c2.4,2.1,4.2,4.1,5.5,5.9c1.3,1.8,2.1,3.5,2.1,5.1
				c0,1.4-0.4,2.7-1.1,3.9c-0.7,1.2-1.6,2.1-2.9,3c-1.2,0.9-2.6,1.5-4.3,2.1c-1.7,0.6-3.3,0.8-4.9,0.8c-3.5,0-6.8-0.8-10-2.4
				c-3.1-1.5-6-3.7-8.9-6.5c-2.8-2.8-5.3-6.1-7.6-9.8c-2.4-3.8-4.5-7.9-6.5-12.1c8.7-2.1,16.2-4.6,22.4-7.3
				c6.2-2.7,11.3-5.6,15.2-8.7c3.9-3,6.8-6.1,8.6-9.2c1.8-3,2.6-6,2.5-8.6c-0.1-4.1-1.1-7.5-2.9-10.1c-1.9-2.7-4.4-4.9-7.5-6.5
				c-3.2-1.8-6.8-2.9-11-3.7c-4.3-0.7-8.7-1.2-13.4-1.3c-6.4,0-12.5,1-18.2,3.2c-5.7,2.1-10.7,5.1-14.9,9
				c-4.3,3.9-7.6,8.6-10.1,14.2c-2.4,5.5-3.7,11.8-3.7,18.6c0,6.8,1.2,13.1,3.5,19c2.3,5.9,5.7,10.9,10.1,15.3
				c4.5,4.3,10.1,7.6,16.8,10.1c6.7,2.4,14.4,3.7,23.1,3.7c5.1,0,9.9-0.7,14.3-2c4.4-1.2,8.3-3.2,11.5-5.8c3.2-2.6,5.8-5.9,7.6-9.7
				c1.9-3.8,2.9-8.3,2.9-13.4C585,198.5,583.9,195.8,581.9,194"/>
			<path class="st0" d="M624.1,189.6c-2-5-3.7-10.1-5.1-15.3c-1.4-5.1-2.1-9.7-2.1-13.7c0-5.1,1.3-9,4.1-11.6c2.7-2.6,5.8-4,9.1-4
				c1.9,0,3.7,0.4,5.7,1.2c1.8,0.8,3.5,2.1,4.9,3.7c1.5,1.6,2.6,3.7,3.5,6.2c1,2.6,1.4,5.5,1.4,9c0,6.6-1.6,11.8-4.7,15.7
				c-3,3.8-7.6,7.2-13.5,10.1c-0.2,0.1-0.5,0.1-1,0.1C625.2,191.2,624.5,190.7,624.1,189.6 M680.5,194c-2.1-1.9-4.6-2.8-7.4-2.8
				c-2.8,0-5.2,0.8-7.2,2.5c-2,1.7-2.9,3.7-2.9,6c0,2.4,0.8,4.2,2.4,5.6c2.4,2.1,4.2,4.1,5.5,5.9c1.3,1.8,2,3.5,2,5.1
				c0,1.4-0.4,2.7-1,3.9c-0.7,1.2-1.7,2.1-2.9,3c-1.2,0.9-2.6,1.5-4.3,2.1c-1.7,0.6-3.3,0.8-4.9,0.8c-3.5,0-6.8-0.8-9.9-2.4
				c-3.2-1.5-6.2-3.7-9-6.5c-2.8-2.8-5.3-6.1-7.6-9.8c-2.4-3.8-4.5-7.9-6.5-12.1c8.7-2.1,16.2-4.6,22.4-7.3
				c6.2-2.7,11.3-5.6,15.2-8.7c3.9-3,6.8-6.1,8.6-9.2c1.8-3,2.6-6,2.5-8.6c-0.1-4.1-1.1-7.5-3-10.1c-1.8-2.7-4.3-4.9-7.5-6.5
				c-3.1-1.8-6.8-2.9-10.9-3.7c-4.2-0.7-8.7-1.2-13.4-1.3c-6.5,0-12.5,1-18.2,3.2c-5.7,2.1-10.7,5.1-14.9,9
				c-4.3,3.9-7.6,8.6-10.1,14.2c-2.4,5.5-3.7,11.8-3.7,18.6c0,6.8,1.2,13.1,3.5,19c2.3,5.9,5.7,10.9,10.1,15.3
				c4.5,4.3,10.1,7.6,16.8,10.1c6.7,2.4,14.4,3.7,23.1,3.7c5.1,0,9.9-0.7,14.3-2c4.4-1.2,8.2-3.2,11.5-5.8c3.2-2.6,5.8-5.9,7.6-9.7
				c1.9-3.8,2.9-8.3,2.9-13.4C683.5,198.5,682.4,195.8,680.5,194"/>
			<path class="st0" d="M764,222.6c-1.2,0.6-2.2,0.9-3.3,0.9c-3.5,0-7.9-2.4-13.2-7.1c-5.2-4.7-11-12.3-17.3-22.8
				c-7.4-12.6-11.8-22.6-13.1-29.8c-1.3-7.3-0.2-12,3.2-14c1.2-0.6,2.3-0.9,3.5-0.9c3.5,0,7.9,2.4,13.2,7.1
				c5.3,4.7,11.1,12.3,17.3,22.9c7.5,12.5,11.8,22.4,13.1,29.8C768.5,216,767.4,220.6,764,222.6 M784.6,166.7
				c-2.4-5.7-5.8-10.6-10.1-14.6c-4.3-4-9.2-7.1-14.9-9.1c-5.7-2.1-11.8-3.2-18.2-3.2c-6.5,0-12.6,1-18.2,3.2
				c-5.7,2.1-10.6,5.1-14.8,9.1c-4.3,4-7.6,8.9-10.1,14.6c-2.4,5.7-3.7,12.2-3.7,19.5c0,7.3,1.2,13.9,3.7,19.5
				c2.5,5.7,5.8,10.6,10.1,14.6c4.3,4,9.2,7.1,14.8,9.2c5.7,2.1,11.8,3.2,18.2,3.2c6.5,0,12.5-1.1,18.2-3.2
				c5.7-2.1,10.7-5.1,14.9-9.2c4.3-4,7.6-8.9,10.1-14.6c2.4-5.7,3.7-12.2,3.7-19.5C788.3,178.9,787.1,172.4,784.6,166.7"/>
			<path class="st0" d="M886.7,227h-1.5c-1.6,0-2.9-0.4-3.7-1.3c-0.8-0.9-1.5-1.8-1.8-2.9c-0.4-1.2-0.7-2.5-0.8-4v-36.1
				c0-15.4-12.6-27.9-28-27.9h-20.9v-2.3c0-1.8,0.2-3.5,0.6-5.4c0.4-1.8,0.7-3.1,1-3.9c0-0.7-0.1-1.2-0.3-1.5l-0.2-0.2
				c-0.1-0.4-0.5-0.5-1.2-0.5h-0.5c-3,0.7-6.2,1.5-9.5,2.5c-3.3,0.9-6.5,1.8-9.7,2.6c-3.2,0.8-6.1,1.5-8.8,2.2
				c-2.7,0.7-5.1,1-7.1,1.2c-0.9,0.3-1.2,0.7-1,1.5c0,1,0.4,1.5,1.2,1.2c0.7,0,1.5,0.1,2.4,0.2c0.9,0.1,1.7,0.3,2.4,0.7
				c0.7,0.4,1.5,0.9,2.1,1.6c0.5,0.7,0.8,1.7,0.8,2.9v62.7c0,1.7-0.3,3-0.8,4c-0.6,1-1.2,1.7-2,2.1c-1,0.4-1.9,0.7-2.9,0.8h-1.2
				c-1,0-1.4,0.4-1,1.2l0.4,0.9c0.3,0.7,0.9,1,1.5,1h40.7c0.6,0,1-0.2,1.4-0.8l0.7-1.2c0.4-0.8,0.1-1.2-0.9-1.2h-1.4
				c-1.6,0-2.9-0.4-3.7-1.3c-0.9-0.9-1.5-1.8-1.8-2.9c-0.5-1.2-0.8-2.5-0.9-4v-61.3c1.2-0.2,2.5-0.4,4.2-0.7
				c1.6-0.2,3.3-0.3,5.1-0.3c3,0,5.7,0.6,8.1,1.7c2.4,1.2,3.6,3.5,3.6,7.1v55l-0.4,8.5c0,1,0.5,1.5,1.6,1.5h33.4
				c0.6,0,1-0.2,1.4-0.8l0.7-1.2C888,227.4,887.7,227,886.7,227"/>
			<path class="st0" d="M923.5,189.6c-2-5-3.7-10.1-5.1-15.3c-1.4-5.1-2.1-9.7-2.1-13.7c0-5.1,1.3-9,4.1-11.6c2.7-2.6,5.8-4,9.1-4
				c1.9,0,3.7,0.4,5.7,1.2c1.8,0.8,3.5,2.1,4.9,3.7c1.5,1.6,2.6,3.7,3.5,6.2c0.9,2.6,1.2,5.5,1.2,9c0,6.6-1.5,11.8-4.6,15.7
				c-3.1,3.8-7.6,7.2-13.6,10.1c-0.2,0.1-0.5,0.1-1,0.1C924.6,191.2,923.9,190.7,923.5,189.6 M979.9,194c-2.1-1.9-4.6-2.8-7.4-2.8
				c-2.8,0-5.2,0.8-7.1,2.5c-2.1,1.7-3,3.7-3,6c0,2.4,0.8,4.2,2.4,5.6c2.4,2.1,4.2,4.1,5.5,5.9c1.4,1.8,2,3.5,2,5.1
				c0,1.4-0.3,2.7-1,3.9c-0.7,1.2-1.7,2.1-2.9,3c-1.2,0.9-2.6,1.5-4.3,2.1c-1.7,0.6-3.2,0.8-4.9,0.8c-3.5,0-6.8-0.8-9.9-2.4
				c-3.2-1.5-6.1-3.7-9-6.5c-2.8-2.8-5.3-6.1-7.6-9.8c-2.4-3.8-4.5-7.9-6.5-12.1c8.7-2.1,16.2-4.6,22.4-7.3
				c6.2-2.7,11.3-5.6,15.2-8.7c3.9-3,6.8-6.1,8.6-9.2c1.8-3,2.6-6,2.5-8.6c-0.1-4.1-1.1-7.5-2.9-10.1c-1.9-2.7-4.4-4.9-7.5-6.5
				c-3.2-1.8-6.8-2.9-11-3.7c-4.2-0.7-8.7-1.2-13.4-1.3c-6.5,0-12.5,1-18.1,3.2c-5.7,2.1-10.7,5.1-15,9c-4.3,3.9-7.6,8.6-10.1,14.2
				c-2.4,5.5-3.7,11.8-3.7,18.6c0,6.8,1.2,13.1,3.5,19c2.3,5.9,5.7,10.9,10.1,15.3c4.5,4.3,10.1,7.6,16.8,10.1
				c6.7,2.4,14.4,3.7,23.1,3.7c5.1,0,9.9-0.7,14.3-2c4.4-1.2,8.3-3.2,11.5-5.8c3.2-2.6,5.8-5.9,7.6-9.7c1.9-3.8,2.9-8.3,2.9-13.4
				C983,198.5,981.9,195.8,979.9,194"/>
			<path class="st0" d="M294.7,101.7c-2.1,33.7-19.7,41.7-40.4,40.9c-2-0.1-4-0.2-6-0.5c-8.5-0.9-17.3-3-25.6-5.2
				c-3.2-0.9-6.4-1.8-9.4-2.6c-3.5-1-6.7-1.8-9.8-2.6c-3.3-0.8-6.3-1.5-9-1.8c-3.6-0.4-6.7-0.5-9,0.1c-4.8,1.4-6.8,5.7-4.1,15.1
				c-1.8-0.7-3.5-1.5-4.9-2.5v-0.1c-9.6-7-9.6-22.2-0.1-32.3c2.4-2.6,5.4-4.8,9-6.5c2.6-1.2,5.7-2.2,9-2.7c1.5-0.3,3.2-0.4,4.9-0.5
				c1.3-0.1,2.7-0.1,4,0C239.3,101.1,281,129,294.7,101.7"/>
		</g>
	</g>
</g>
</svg>
