<svg width="14" height="16" viewBox="0 0 14 16" fill="none" xmlns="http://www.w3.org/2000/svg">
<path fill-rule="evenodd" clip-rule="evenodd" d="M2.04581 1.21619C2.12466 1.15889 2.20621 1.10618 2.29095 1.05769C2.31817 1.11832 2.35667 1.17511 2.40646 1.2249C3.37438 2.19277 4.13412 2.95131 4.80384 3.48734C5.48186 4.02999 6.11681 4.38619 6.84839 4.50206C7.29535 4.57285 7.75067 4.57285 8.19763 4.50206C8.90875 4.38943 9.52848 4.04976 10.1853 3.5325C10.8337 3.02184 11.5617 2.30208 12.478 1.38641C12.5074 1.35703 12.5329 1.3252 12.5544 1.29159C12.8315 1.50744 13.0771 1.76129 13.2838 2.04581C14 3.03155 14 4.4377 14 7.25V8.75C14 11.5623 14 12.9684 13.2838 13.9542C13.0525 14.2725 12.7725 14.5525 12.4542 14.7838C11.4684 15.5 10.0623 15.5 7.25 15.5C4.4377 15.5 3.03155 15.5 2.04581 14.7838C1.72745 14.5525 1.44748 14.2725 1.21619 13.9542C0.5 12.9684 0.5 11.5623 0.5 8.75V7.25C0.5 4.4377 0.5 3.03155 1.21619 2.04581C1.44748 1.72745 1.72745 1.44748 2.04581 1.21619ZM4.25 5.9375C3.93934 5.9375 3.6875 6.18934 3.6875 6.5C3.6875 6.81066 3.93934 7.0625 4.25 7.0625H10.25C10.5607 7.0625 10.8125 6.81066 10.8125 6.5C10.8125 6.18934 10.5607 5.9375 10.25 5.9375H4.25ZM4.25 8.9375C3.93934 8.9375 3.6875 9.18934 3.6875 9.5C3.6875 9.81066 3.93934 10.0625 4.25 10.0625H10.25C10.5607 10.0625 10.8125 9.81066 10.8125 9.5C10.8125 9.18934 10.5607 8.9375 10.25 8.9375H4.25ZM4.25 11.9375C3.93934 11.9375 3.6875 12.1893 3.6875 12.5C3.6875 12.8107 3.93934 13.0625 4.25 13.0625H10.25C10.5607 13.0625 10.8125 12.8107 10.8125 12.5C10.8125 12.1893 10.5607 11.9375 10.25 11.9375H4.25Z" fill="#A6ABC8"/>
<path d="M7.25 0.5C9.27495 0.5 10.5709 0.5 11.5058 0.767354C10.6655 1.60542 10.037 2.21731 9.48925 2.64867C8.91209 3.10321 8.46968 3.31995 8.02164 3.39091C7.69128 3.44323 7.35474 3.44323 7.02437 3.39091C6.56347 3.31791 6.10863 3.09068 5.50682 2.60901C4.94647 2.16053 4.30176 1.52782 3.43745 0.664756C4.33155 0.5 5.52681 0.5 7.25 0.5Z" fill="#A6ABC8"/>
</svg>
