<svg width="15" height="16" viewBox="0 0 15 16" fill="none" xmlns="http://www.w3.org/2000/svg">
<path fill-rule="evenodd" clip-rule="evenodd" d="M13.5516 9.18506C13.8199 9.32756 14.0268 9.55256 14.1725 9.77756C14.4561 10.2426 14.4331 10.8126 14.1571 11.3151L13.6206 12.2151C13.337 12.6951 12.8082 12.9951 12.264 12.9951C11.9957 12.9951 11.6968 12.9201 11.4515 12.7701C11.2522 12.6426 11.0223 12.5976 10.777 12.5976C10.0182 12.5976 9.38204 13.2201 9.35905 13.9626C9.35905 14.8251 8.6539 15.5001 7.77246 15.5001H6.73006C5.84096 15.5001 5.13581 14.8251 5.13581 13.9626C5.12048 13.2201 4.48431 12.5976 3.72551 12.5976C3.47257 12.5976 3.24263 12.6426 3.05102 12.7701C2.80575 12.9201 2.49916 12.9951 2.23856 12.9951C1.6867 12.9951 1.15784 12.6951 0.874248 12.2151L0.345385 11.3151C0.061792 10.8276 0.0464626 10.2426 0.330056 9.77756C0.452691 9.55256 0.682631 9.32756 0.94323 9.18506C1.15784 9.08006 1.29581 8.90756 1.42611 8.70506C1.80934 8.06006 1.5794 7.21256 0.927901 6.83006C0.169098 6.40256 -0.0761723 5.45006 0.360714 4.70756L0.874248 3.82256C1.3188 3.08006 2.26922 2.81756 3.03569 3.25256C3.70251 3.61256 4.56862 3.37256 4.95952 2.73506C5.08216 2.52506 5.15114 2.30006 5.13581 2.07506C5.12048 1.78256 5.20479 1.50506 5.35042 1.28006C5.63401 0.815061 6.14755 0.515061 6.70707 0.500061H7.78779C8.35498 0.500061 8.86851 0.815061 9.1521 1.28006C9.29007 1.50506 9.38204 1.78256 9.35905 2.07506C9.34372 2.30006 9.4127 2.52506 9.53534 2.73506C9.92624 3.37256 10.7923 3.61256 11.4668 3.25256C12.2256 2.81756 13.1837 3.08006 13.6206 3.82256L14.1341 4.70756C14.5787 5.45006 14.3334 6.40256 13.567 6.83006C12.9155 7.21256 12.6855 8.06006 13.0764 8.70506C13.1991 8.90756 13.337 9.08006 13.5516 9.18506ZM5.08208 8.00757C5.08208 9.18507 6.05549 10.1226 7.25885 10.1226C8.4622 10.1226 9.41262 9.18507 9.41262 8.00757C9.41262 6.83006 8.4622 5.88506 7.25885 5.88506C6.05549 5.88506 5.08208 6.83006 5.08208 8.00757Z" fill="#A6ABC8"/>
</svg>
