<?xml version="1.0" encoding="utf-8"?>
<!-- Generator: Adobe Illustrator 25.1.0, SVG Export Plug-In . SVG Version: 6.00 Build 0)  -->
<svg version="1.1" id="Layer_1" xmlns="http://www.w3.org/2000/svg" xmlns:xlink="http://www.w3.org/1999/xlink" x="0px" y="0px"
	 viewBox="0 0 678.3 974.3" style="enable-background:new 0 0 678.3 974.3;" xml:space="preserve">
<style type="text/css">
	.st0{fill:#2F3C29;}
</style>
<g>
	<path class="st0" d="M595.9,487.6c-9.1,0-16.4-7.4-16.4-16.4V342.4c0-132.5-107.8-240.3-240.3-240.3S98.8,209.9,98.8,342.4v128.8
		c0,9.1-7.4,16.4-16.4,16.4s-16.4-7.4-16.4-16.4V342.4c0-150.7,122.6-273.2,273.2-273.2s273.2,122.6,273.2,273.2v128.8
		C612.5,480.3,605,487.6,595.9,487.6"/>
	<path class="st0" d="M612.5,537.6L612.5,537.6c0,9.1-7.4,16.4-16.4,16.4H83c-8.6,0-16.3-6.3-17.1-14.8c-0.9-9.9,6.7-18.1,16.4-18.1
		h513.5C605,521.2,612.5,528.6,612.5,537.6"/>
	<path class="st0" d="M579.5,631.7c0,64.3-24.9,124.8-70.2,170.1c-31.6,31.6-70.2,53.1-112.5,63.3c-17.4,4.3-35.3,6.7-53.8,7
		c0.5-2.7,1.1-5.3,1.9-8.3c17.4-73.2,72.1-215.3,234.6-241V631.7z M594.3,587.8c-146.2,14.4-219.1,108.5-255,190.2
		c-7.2,16-12.8,31.6-17.4,46c-0.3,0.3-0.3,0.3,0,0.3c-3.2,9.4-5.6,18.2-7.8,26.5c-1.6,7.2-3.2,13.9-4.5,19.8
		c-1.1,5.6-1.9,10.7-2.7,15l-0.3,1.1l-2.7,16v0.8l11.5,0.8l6.7,0.5h1.1c5.3,0.3,10.4,0.5,16,0.5c72.9,0,141.6-28.6,193.1-80.1
		s80.1-120.2,80.1-193.4v-45.7L594.3,587.8z"/>
	<path class="st0" d="M331,854.9c6.4-18.2,13.4-35.6,19.3-49.6c-3.2-8.8-7-17.9-11-27.3C302.9,696.3,229.8,602.2,84,587.8l-18.2-1.9
		v45.7c0,73.2,28.6,141.9,80.1,193.4c43.3,43.2,98.3,69.9,158.1,77.4c3.7,0.8,7.8,1.3,11.5,1.6c0.3-0.5,0.3-1.1,0.5-1.6
		c0.8-3.2,1.6-6.2,2.4-9.4c2.1-7.2,4.5-14.2,7-21.4c-1.1,0-2.1,0-3.2-0.3c-4.3-0.3-8.3-0.5-12.6-1.1c-9.6-1.3-19-3.2-28.4-5.3
		c-42-10.4-80.6-32.1-112.2-63.3C123.6,756.3,98.8,696,98.8,631.7v-8.8c136.5,21.4,196.9,125,223.1,201.1c-0.3,0.3-0.3,0.3,0,0.3
		C325.4,835.1,328.6,845.5,331,854.9"/>
	<path class="st0" d="M419.9,554.1c-3.2,0-6.4-0.9-9.4-2.9c-7.5-5.2-9.4-15.4-4.3-22.9c49.6-71.9,31.7-109.3,9-156.6
		c-18.7-39.2-40-83.4-22.2-149.9c2.4-8.8,11.4-14,20.2-11.6c8.8,2.4,14,11.4,11.6,20.2c-14.7,54.7,2.1,89.9,20.1,127.2
		c24.1,50.1,48.8,101.9-11.5,189.5C430.3,551.7,425.1,554.1,419.9,554.1"/>
	<path class="st0" d="M264.9,554.1c-3.2,0-6.4-0.9-9.4-2.9c-7.5-5.2-9.4-15.4-4.3-22.9c49.6-71.9,31.7-109.3,9-156.6
		c-18.7-39.2-40-83.4-22.2-149.9c2.4-8.8,11.4-14,20.2-11.6c8.8,2.4,14,11.4,11.6,20.2c-14.7,54.7,2.1,89.9,20.1,127.2
		c24.1,50.1,48.8,101.9-11.5,189.5C275.4,551.7,270.1,554.1,264.9,554.1"/>
	<path class="st0" d="M342.5,554.1c-4,0-8-1.5-11.1-4.4c-6.7-6.2-7.1-16.6-0.9-23.3c47.1-51.2,29-98.7,4.1-164.5
		c-27.5-72.6-61.8-162.9-7-283.2c3.7-8.3,13.5-11.9,21.8-8.2c8.3,3.7,11.9,13.5,8.2,21.8c-49.1,107.8-18.9,187.5,7.8,257.8
		c25.8,68.1,50.1,132.3-10.7,198.5C351.3,552.4,346.9,554.1,342.5,554.1"/>
	<path class="st0" d="M323.4,904.5c-7.8,0-14.6-5.3-16.2-13.2c-1.7-9,4-17.7,13-19.4c46.4-9.2,64.9-41.6,86.1-79
		c21-37,44.9-78.9,100.4-92.5c8.8-2.1,17.8,3.2,19.9,12c2.1,8.8-3.2,17.8-12,19.9c-41.7,10.3-59.4,41.1-79.7,76.8
		c-22.1,38.8-47.1,82.8-108.3,95.1C325.5,904.5,324.3,904.5,323.4,904.5"/>
	<path class="st0" d="M328.8,861.1c-1.2,3.5-2.4,7-3.6,10.4c-2.4,7.1-4.7,14.3-6.7,21.3c-0.3-0.1-0.5-0.3-0.8-0.4
		c-14.6-7.4-26.3-16.9-36.4-27.5c-15.6-16.9-26.9-36.5-38-56c-20.3-35.7-37.8-66.6-79.6-76.9c-8.8-2.1-14.2-11.1-12-19.9
		c2.1-8.8,11.1-14.2,19.9-12c55.5,13.6,79.4,55.5,100.4,92.5C287.8,820.4,302.5,846.4,328.8,861.1"/>
	<path class="st0" d="M645.4,631.9c0,169-137.1,306.1-306.1,306.1C170,937.9,32.9,801,32.9,631.9V342.3
		c0-169,137.1-306.1,306.4-306.1c84.4,0,161,34.2,216.4,89.7c51.2,51,84.4,120.2,89.2,196.9c0.3,6.4,0.5,12.8,0.5,19.5L645.4,631.9
		L645.4,631.9z M677.5,321C666.5,143.7,519.4,3.4,339.3,3.4c-93.7,0-178.4,38-239.9,99.4C38,163.9,0,248.9,0,342.4v289.5
		c0,187.2,151.7,339,339.3,339c93.5,0,178.4-38,239.6-99.4c61.4-61.1,99.4-146.2,99.4-239.6V342.3C678.3,335.2,678,328,677.5,321"/>
</g>
</svg>
